<svg width="41" height="33" viewBox="0 0 41 33" fill="none" xmlns="http://www.w3.org/2000/svg">
<path d="M17.4219 31.97C17.8594 32.095 18.2344 31.845 18.3594 31.47L26.9219 2.09502C27.0469 1.65752 26.7969 1.22002 26.4219 1.15752L22.6094 0.0325162C22.1719 -0.0924838 21.7969 0.157516 21.6719 0.532516L13.1094 29.9075C12.9844 30.345 13.2344 30.72 13.6094 30.845L17.4219 31.97ZM10.2969 24.97L13.0469 22.0325C13.3594 21.72 13.2969 21.2825 12.9844 20.97L7.35938 15.97L12.9844 11.0325C13.2969 10.72 13.3594 10.22 13.0469 9.97002L10.2969 7.03252C10.0469 6.72002 9.54688 6.72002 9.23438 7.03252L0.234375 15.47C-0.078125 15.72 -0.078125 16.22 0.234375 16.5325L9.23438 24.97C9.54688 25.2825 10.0469 25.2825 10.2969 24.97ZM30.7969 24.97L39.7969 16.5325C40.1094 16.2825 40.1094 15.72 39.7969 15.47L30.7969 7.03252C30.4844 6.72002 29.9844 6.72002 29.7344 7.03252L26.9844 9.90752C26.7344 10.22 26.7344 10.72 27.0469 11.0325L32.7344 15.97L27.0469 20.97C26.7344 21.2825 26.6719 21.72 26.9844 22.0325L29.7344 24.97C29.9844 25.2825 30.4844 25.2825 30.7969 24.97Z" fill="#FDFDFD"/>
</svg>
