<svg width="36" height="28" viewBox="0 0 36 28" fill="none" xmlns="http://www.w3.org/2000/svg">
<path d="M20 0.125C19.3125 0.0625 18.625 0 18 0C11.75 0 6.25 3.1875 3 8H20V0.125ZM6 10H1.875C0.6875 12.4375 0 15.125 0 18H6V10ZM22 0.5V8H32.9375C30.4375 4.25 26.5 1.5 22 0.5ZM30 18H36C36 15.125 35.25 12.4375 34.0625 10H30V18ZM26 22V28H34C35.0625 28 36 27.125 36 26V20H25.6875C25.875 20.6875 26 21.3125 26 22ZM28 10H8V18H11.0625C12.5 15.625 15 14 18 14C20.9375 14 23.5 15.625 24.875 18H28V10ZM0 26C0 27.125 0.875 28 2 28H10V22C10 21.3125 10.0625 20.6875 10.25 20H0V26ZM18 16C14.6875 16 12 18.6875 12 22V28H24V22C24 18.6875 21.3125 16 18 16Z" fill="white"/>
</svg>
