<svg width="28" height="28" viewBox="0 0 28 28" fill="none" xmlns="http://www.w3.org/2000/svg">
<path d="M14 10.6875C12.125 10.6875 10.625 12.1875 10.625 14C10.625 15.875 12.125 17.375 14 17.375C15.8125 17.375 17.3125 15.875 17.3125 14C17.3125 12.1875 15.8125 10.6875 14 10.6875ZM21.75 8.125C21.4375 7.25 20.75 6.5625 19.875 6.25C18.5625 5.6875 15.4375 5.8125 14 5.8125C12.5 5.8125 9.375 5.6875 8.0625 6.25C7.1875 6.5625 6.5 7.25 6.1875 8.125C5.6875 9.4375 5.75 12.5625 5.75 14C5.75 15.5 5.6875 18.625 6.1875 19.9375C6.5 20.8125 7.1875 21.5 8.0625 21.8125C9.375 22.375 12.5 22.25 14 22.25C15.4375 22.25 18.5625 22.375 19.875 21.8125C20.75 21.5 21.4375 20.8125 21.75 19.9375C22.3125 18.625 22.1875 15.5 22.1875 14C22.1875 12.5625 22.3125 9.4375 21.75 8.125ZM14 19.125C11.125 19.125 8.875 16.875 8.875 14C8.875 11.1875 11.125 8.875 14 8.875C16.8125 8.875 19.125 11.1875 19.125 14V14.0625C19.125 16.875 16.8125 19.1875 14 19.1875V19.125ZM19.3125 9.875C18.625 9.875 18.125 9.375 18.125 8.6875C18.125 8 18.625 7.5 19.3125 7.5C19.9375 7.5 20.5 8 20.5 8.6875C20.5 9.375 19.9375 9.875 19.3125 9.875ZM25 0H3C1.3125 0 0 1.375 0 3V25C0 26.6875 1.3125 28 3 28H25C26.625 28 28 26.6875 28 25V3C28 1.375 26.625 0 25 0ZM23.875 18.125C23.8125 19.75 23.4375 21.1875 22.3125 22.3125C21.125 23.5 19.6875 23.875 18.125 23.9375C16.4375 24.0625 11.5 24.0625 9.875 23.9375C8.25 23.875 6.8125 23.5 5.6875 22.3125C4.5 21.1875 4.125 19.75 4.0625 18.125C3.9375 16.5 3.9375 11.5625 4.0625 9.875C4.125 8.3125 4.5 6.875 5.6875 5.6875C6.8125 4.5625 8.25 4.1875 9.875 4.125C11.5 4 16.4375 4 18.125 4.125C19.6875 4.1875 21.125 4.5625 22.3125 5.75C23.4375 6.875 23.8125 8.3125 23.875 9.9375C24 11.5625 24 16.5 23.875 18.125Z" fill="white"/>
</svg>
