<svg width="34" height="30" viewBox="0 0 34 30" fill="none" xmlns="http://www.w3.org/2000/svg">
<mask id="path-1-outside-1_103:36" maskUnits="userSpaceOnUse" x="0" y="0.0263672" width="34" height="30" fill="black">
<rect fill="white" y="0.0263672" width="34" height="30"/>
<path d="M27.125 10.125C26.75 10 26.4375 9.87501 26.125 9.81251C26.125 9.56251 26.1875 9.31251 26.25 9.06251C27 5.37501 26.5 2.37501 24.8125 1.37501C23.1875 0.437506 20.5 1.43751 17.75 3.81251C17.5 4.00001 17.25 4.25001 17 4.50001C16.8125 4.31251 16.625 4.18751 16.5 4.00001C13.625 1.50001 10.75 0.437506 9.0625 1.43751C7.4375 2.37501 6.9375 5.18751 7.625 8.75001C7.6875 9.06251 7.75 9.43751 7.875 9.75001C7.4375 9.87501 7.0625 10 6.6875 10.125C3.375 11.3125 1 13.125 1 15C1 16.9375 3.5 18.9375 7 20.125C7.25 20.1875 7.5625 20.3125 7.8125 20.375C7.75 20.75 7.6875 21.125 7.5625 21.5C6.9375 24.9375 7.4375 27.6875 9.0625 28.625C10.75 29.625 13.625 28.625 16.375 26.1875C16.5625 26 16.8125 25.8125 17 25.625C17.3125 25.875 17.5625 26.125 17.875 26.375C20.5625 28.6875 23.1875 29.625 24.8125 28.6875C26.5 27.6875 27.0625 24.75 26.375 21.125C26.3125 20.875 26.25 20.5625 26.1875 20.3125C26.375 20.25 26.5625 20.1875 26.75 20.125C30.375 18.9375 33 17 33 15C33 13.125 30.5 11.25 27.125 10.125ZM18.625 4.81251C21 2.75001 23.125 2.00001 24.125 2.56251C25.1875 3.12501 25.625 5.62501 24.9375 8.81251C24.875 9.06251 24.875 9.25001 24.8125 9.43751C23.375 9.12501 22 8.93751 20.5625 8.81251C19.75 7.62501 18.875 6.50001 17.9375 5.43751C18.1875 5.25001 18.375 5.00001 18.625 4.81251ZM11.4375 18.25C11.75 18.8125 12.0625 19.3125 12.4375 19.875C11.4375 19.75 10.4375 19.625 9.5 19.375C9.8125 18.5 10.125 17.5625 10.5 16.625C10.8125 17.1875 11.125 17.6875 11.4375 18.25ZM9.5 10.75C10.4375 10.5 11.375 10.375 12.375 10.25C12.0625 10.75 11.75 11.3125 11.4375 11.8125C11.125 12.375 10.8125 12.875 10.5 13.4375C10.125 12.5 9.8125 11.625 9.5 10.75ZM11.25 15.0625C11.625 14.1875 12.125 13.3125 12.5625 12.5C13.0625 11.6875 13.5625 10.875 14.125 10.0625C15.0625 10 16 9.93751 17 9.93751C17.9375 9.93751 18.9375 10 19.8125 10.0625C20.375 10.875 20.875 11.6875 21.375 12.5C21.8125 13.3125 22.3125 14.125 22.6875 15C22.3125 15.875 21.875 16.75 21.375 17.5625C20.875 18.375 20.375 19.1875 19.875 20C18.9375 20.0625 17.9375 20.125 17 20.125C16 20.125 15.0625 20.0625 14.125 20C13.5625 19.1875 13.0625 18.375 12.5625 17.5625C12.125 16.75 11.6875 15.875 11.25 15.0625ZM22.5 18.25C22.875 17.6875 23.125 17.125 23.4375 16.5625C23.8125 17.5 24.1875 18.375 24.5 19.3125C23.5 19.5625 22.5625 19.75 21.5625 19.8125C21.875 19.3125 22.1875 18.75 22.5 18.25ZM23.4375 13.4375C23.125 12.875 22.8125 12.375 22.5 11.8125C22.1875 11.3125 21.875 10.75 21.5625 10.25C22.5625 10.375 23.5625 10.5625 24.4375 10.75C24.125 11.6875 23.8125 12.5625 23.4375 13.4375ZM17 6.43751C17.625 7.12501 18.25 7.87501 18.8125 8.68751C17.625 8.62501 16.375 8.62501 15.125 8.68751C15.75 7.87501 16.375 7.12501 17 6.43751ZM9.75 2.56251C10.8125 2.00001 13.125 2.87501 15.5625 5.00001C15.75 5.18751 15.875 5.31251 16.0625 5.43751C15.0625 6.50001 14.1875 7.62501 13.375 8.81251C11.9375 8.93751 10.5625 9.12501 9.1875 9.43751C9.0625 9.12501 9 8.81251 8.9375 8.43751C8.375 5.43751 8.75 3.18751 9.75 2.56251ZM8.1875 19.0625C7.9375 19 7.6875 18.9375 7.4375 18.8125C6.125 18.375 4.5625 17.75 3.5 16.875C2.875 16.4375 2.4375 15.75 2.3125 15C2.3125 13.875 4.3125 12.375 7.125 11.375C7.5 11.25 7.875 11.1875 8.25 11.0625C8.625 12.4375 9.1875 13.75 9.75 15.0625C9.125 16.3125 8.625 17.6875 8.1875 19.0625ZM15.5 25.1875C14.4375 26.125 13.25 26.875 11.9375 27.375C11.25 27.75 10.5 27.75 9.75 27.5C8.75 26.875 8.375 24.6875 8.9375 21.75C9 21.375 9.0625 21 9.125 20.6875C10.5625 21 11.9375 21.1875 13.375 21.3125C14.1875 22.4375 15.125 23.5625 16.0625 24.625C15.875 24.8125 15.6875 25 15.5 25.1875ZM17 23.6875C16.375 23 15.75 22.25 15.125 21.375C15.75 21.4375 16.375 21.4375 17 21.4375C17.625 21.4375 18.25 21.4375 18.875 21.375C18.3125 22.1875 17.6875 22.9375 17 23.6875ZM25.1875 25.5625C25.125 26.3125 24.75 27 24.1875 27.5C23.1875 28.0625 21.0625 27.3125 18.75 25.375C18.5 25.125 18.25 24.875 17.9375 24.625C18.9375 23.5625 19.8125 22.5 20.625 21.3125C22.0625 21.1875 23.4375 20.9375 24.875 20.625C24.9375 20.875 25 21.125 25.0625 21.375C25.3125 22.75 25.375 24.1875 25.1875 25.5625ZM26.3125 18.8125C26.125 18.875 26 18.9375 25.8125 19C25.375 17.625 24.8125 16.3125 24.1875 15C24.8125 13.75 25.3125 12.4375 25.75 11.0625C26.0625 11.1875 26.375 11.25 26.6875 11.375C29.5625 12.375 31.625 13.875 31.625 15C31.625 16.1875 29.4375 17.8125 26.3125 18.8125ZM17 17.875C18.5625 17.875 19.8125 16.625 19.8125 15C19.8125 13.4375 18.5625 12.1875 17 12.1875C15.375 12.1875 14.125 13.4375 14.125 15C14.125 16.625 15.375 17.875 17 17.875Z"/>
</mask>
<path d="M27.125 10.125C26.75 10 26.4375 9.87501 26.125 9.81251C26.125 9.56251 26.1875 9.31251 26.25 9.06251C27 5.37501 26.5 2.37501 24.8125 1.37501C23.1875 0.437506 20.5 1.43751 17.75 3.81251C17.5 4.00001 17.25 4.25001 17 4.50001C16.8125 4.31251 16.625 4.18751 16.5 4.00001C13.625 1.50001 10.75 0.437506 9.0625 1.43751C7.4375 2.37501 6.9375 5.18751 7.625 8.75001C7.6875 9.06251 7.75 9.43751 7.875 9.75001C7.4375 9.87501 7.0625 10 6.6875 10.125C3.375 11.3125 1 13.125 1 15C1 16.9375 3.5 18.9375 7 20.125C7.25 20.1875 7.5625 20.3125 7.8125 20.375C7.75 20.75 7.6875 21.125 7.5625 21.5C6.9375 24.9375 7.4375 27.6875 9.0625 28.625C10.75 29.625 13.625 28.625 16.375 26.1875C16.5625 26 16.8125 25.8125 17 25.625C17.3125 25.875 17.5625 26.125 17.875 26.375C20.5625 28.6875 23.1875 29.625 24.8125 28.6875C26.5 27.6875 27.0625 24.75 26.375 21.125C26.3125 20.875 26.25 20.5625 26.1875 20.3125C26.375 20.25 26.5625 20.1875 26.75 20.125C30.375 18.9375 33 17 33 15C33 13.125 30.5 11.25 27.125 10.125ZM18.625 4.81251C21 2.75001 23.125 2.00001 24.125 2.56251C25.1875 3.12501 25.625 5.62501 24.9375 8.81251C24.875 9.06251 24.875 9.25001 24.8125 9.43751C23.375 9.12501 22 8.93751 20.5625 8.81251C19.75 7.62501 18.875 6.50001 17.9375 5.43751C18.1875 5.25001 18.375 5.00001 18.625 4.81251ZM11.4375 18.25C11.75 18.8125 12.0625 19.3125 12.4375 19.875C11.4375 19.75 10.4375 19.625 9.5 19.375C9.8125 18.5 10.125 17.5625 10.5 16.625C10.8125 17.1875 11.125 17.6875 11.4375 18.25ZM9.5 10.75C10.4375 10.5 11.375 10.375 12.375 10.25C12.0625 10.75 11.75 11.3125 11.4375 11.8125C11.125 12.375 10.8125 12.875 10.5 13.4375C10.125 12.5 9.8125 11.625 9.5 10.75ZM11.25 15.0625C11.625 14.1875 12.125 13.3125 12.5625 12.5C13.0625 11.6875 13.5625 10.875 14.125 10.0625C15.0625 10 16 9.93751 17 9.93751C17.9375 9.93751 18.9375 10 19.8125 10.0625C20.375 10.875 20.875 11.6875 21.375 12.5C21.8125 13.3125 22.3125 14.125 22.6875 15C22.3125 15.875 21.875 16.75 21.375 17.5625C20.875 18.375 20.375 19.1875 19.875 20C18.9375 20.0625 17.9375 20.125 17 20.125C16 20.125 15.0625 20.0625 14.125 20C13.5625 19.1875 13.0625 18.375 12.5625 17.5625C12.125 16.75 11.6875 15.875 11.25 15.0625ZM22.5 18.25C22.875 17.6875 23.125 17.125 23.4375 16.5625C23.8125 17.5 24.1875 18.375 24.5 19.3125C23.5 19.5625 22.5625 19.75 21.5625 19.8125C21.875 19.3125 22.1875 18.75 22.5 18.25ZM23.4375 13.4375C23.125 12.875 22.8125 12.375 22.5 11.8125C22.1875 11.3125 21.875 10.75 21.5625 10.25C22.5625 10.375 23.5625 10.5625 24.4375 10.75C24.125 11.6875 23.8125 12.5625 23.4375 13.4375ZM17 6.43751C17.625 7.12501 18.25 7.87501 18.8125 8.68751C17.625 8.62501 16.375 8.62501 15.125 8.68751C15.75 7.87501 16.375 7.12501 17 6.43751ZM9.75 2.56251C10.8125 2.00001 13.125 2.87501 15.5625 5.00001C15.75 5.18751 15.875 5.31251 16.0625 5.43751C15.0625 6.50001 14.1875 7.62501 13.375 8.81251C11.9375 8.93751 10.5625 9.12501 9.1875 9.43751C9.0625 9.12501 9 8.81251 8.9375 8.43751C8.375 5.43751 8.75 3.18751 9.75 2.56251ZM8.1875 19.0625C7.9375 19 7.6875 18.9375 7.4375 18.8125C6.125 18.375 4.5625 17.75 3.5 16.875C2.875 16.4375 2.4375 15.75 2.3125 15C2.3125 13.875 4.3125 12.375 7.125 11.375C7.5 11.25 7.875 11.1875 8.25 11.0625C8.625 12.4375 9.1875 13.75 9.75 15.0625C9.125 16.3125 8.625 17.6875 8.1875 19.0625ZM15.5 25.1875C14.4375 26.125 13.25 26.875 11.9375 27.375C11.25 27.75 10.5 27.75 9.75 27.5C8.75 26.875 8.375 24.6875 8.9375 21.75C9 21.375 9.0625 21 9.125 20.6875C10.5625 21 11.9375 21.1875 13.375 21.3125C14.1875 22.4375 15.125 23.5625 16.0625 24.625C15.875 24.8125 15.6875 25 15.5 25.1875ZM17 23.6875C16.375 23 15.75 22.25 15.125 21.375C15.75 21.4375 16.375 21.4375 17 21.4375C17.625 21.4375 18.25 21.4375 18.875 21.375C18.3125 22.1875 17.6875 22.9375 17 23.6875ZM25.1875 25.5625C25.125 26.3125 24.75 27 24.1875 27.5C23.1875 28.0625 21.0625 27.3125 18.75 25.375C18.5 25.125 18.25 24.875 17.9375 24.625C18.9375 23.5625 19.8125 22.5 20.625 21.3125C22.0625 21.1875 23.4375 20.9375 24.875 20.625C24.9375 20.875 25 21.125 25.0625 21.375C25.3125 22.75 25.375 24.1875 25.1875 25.5625ZM26.3125 18.8125C26.125 18.875 26 18.9375 25.8125 19C25.375 17.625 24.8125 16.3125 24.1875 15C24.8125 13.75 25.3125 12.4375 25.75 11.0625C26.0625 11.1875 26.375 11.25 26.6875 11.375C29.5625 12.375 31.625 13.875 31.625 15C31.625 16.1875 29.4375 17.8125 26.3125 18.8125ZM17 17.875C18.5625 17.875 19.8125 16.625 19.8125 15C19.8125 13.4375 18.5625 12.1875 17 12.1875C15.375 12.1875 14.125 13.4375 14.125 15C14.125 16.625 15.375 17.875 17 17.875Z" fill="white"/>
<path d="M27.125 10.125C26.75 10 26.4375 9.87501 26.125 9.81251C26.125 9.56251 26.1875 9.31251 26.25 9.06251C27 5.37501 26.5 2.37501 24.8125 1.37501C23.1875 0.437506 20.5 1.43751 17.75 3.81251C17.5 4.00001 17.25 4.25001 17 4.50001C16.8125 4.31251 16.625 4.18751 16.5 4.00001C13.625 1.50001 10.75 0.437506 9.0625 1.43751C7.4375 2.37501 6.9375 5.18751 7.625 8.75001C7.6875 9.06251 7.75 9.43751 7.875 9.75001C7.4375 9.87501 7.0625 10 6.6875 10.125C3.375 11.3125 1 13.125 1 15C1 16.9375 3.5 18.9375 7 20.125C7.25 20.1875 7.5625 20.3125 7.8125 20.375C7.75 20.75 7.6875 21.125 7.5625 21.5C6.9375 24.9375 7.4375 27.6875 9.0625 28.625C10.75 29.625 13.625 28.625 16.375 26.1875C16.5625 26 16.8125 25.8125 17 25.625C17.3125 25.875 17.5625 26.125 17.875 26.375C20.5625 28.6875 23.1875 29.625 24.8125 28.6875C26.5 27.6875 27.0625 24.75 26.375 21.125C26.3125 20.875 26.25 20.5625 26.1875 20.3125C26.375 20.25 26.5625 20.1875 26.75 20.125C30.375 18.9375 33 17 33 15C33 13.125 30.5 11.25 27.125 10.125ZM18.625 4.81251C21 2.75001 23.125 2.00001 24.125 2.56251C25.1875 3.12501 25.625 5.62501 24.9375 8.81251C24.875 9.06251 24.875 9.25001 24.8125 9.43751C23.375 9.12501 22 8.93751 20.5625 8.81251C19.75 7.62501 18.875 6.50001 17.9375 5.43751C18.1875 5.25001 18.375 5.00001 18.625 4.81251ZM11.4375 18.25C11.75 18.8125 12.0625 19.3125 12.4375 19.875C11.4375 19.75 10.4375 19.625 9.5 19.375C9.8125 18.5 10.125 17.5625 10.5 16.625C10.8125 17.1875 11.125 17.6875 11.4375 18.25ZM9.5 10.75C10.4375 10.5 11.375 10.375 12.375 10.25C12.0625 10.75 11.75 11.3125 11.4375 11.8125C11.125 12.375 10.8125 12.875 10.5 13.4375C10.125 12.5 9.8125 11.625 9.5 10.75ZM11.25 15.0625C11.625 14.1875 12.125 13.3125 12.5625 12.5C13.0625 11.6875 13.5625 10.875 14.125 10.0625C15.0625 10 16 9.93751 17 9.93751C17.9375 9.93751 18.9375 10 19.8125 10.0625C20.375 10.875 20.875 11.6875 21.375 12.5C21.8125 13.3125 22.3125 14.125 22.6875 15C22.3125 15.875 21.875 16.75 21.375 17.5625C20.875 18.375 20.375 19.1875 19.875 20C18.9375 20.0625 17.9375 20.125 17 20.125C16 20.125 15.0625 20.0625 14.125 20C13.5625 19.1875 13.0625 18.375 12.5625 17.5625C12.125 16.75 11.6875 15.875 11.25 15.0625ZM22.5 18.25C22.875 17.6875 23.125 17.125 23.4375 16.5625C23.8125 17.5 24.1875 18.375 24.5 19.3125C23.5 19.5625 22.5625 19.75 21.5625 19.8125C21.875 19.3125 22.1875 18.75 22.5 18.25ZM23.4375 13.4375C23.125 12.875 22.8125 12.375 22.5 11.8125C22.1875 11.3125 21.875 10.75 21.5625 10.25C22.5625 10.375 23.5625 10.5625 24.4375 10.75C24.125 11.6875 23.8125 12.5625 23.4375 13.4375ZM17 6.43751C17.625 7.12501 18.25 7.87501 18.8125 8.68751C17.625 8.62501 16.375 8.62501 15.125 8.68751C15.75 7.87501 16.375 7.12501 17 6.43751ZM9.75 2.56251C10.8125 2.00001 13.125 2.87501 15.5625 5.00001C15.75 5.18751 15.875 5.31251 16.0625 5.43751C15.0625 6.50001 14.1875 7.62501 13.375 8.81251C11.9375 8.93751 10.5625 9.12501 9.1875 9.43751C9.0625 9.12501 9 8.81251 8.9375 8.43751C8.375 5.43751 8.75 3.18751 9.75 2.56251ZM8.1875 19.0625C7.9375 19 7.6875 18.9375 7.4375 18.8125C6.125 18.375 4.5625 17.75 3.5 16.875C2.875 16.4375 2.4375 15.75 2.3125 15C2.3125 13.875 4.3125 12.375 7.125 11.375C7.5 11.25 7.875 11.1875 8.25 11.0625C8.625 12.4375 9.1875 13.75 9.75 15.0625C9.125 16.3125 8.625 17.6875 8.1875 19.0625ZM15.5 25.1875C14.4375 26.125 13.25 26.875 11.9375 27.375C11.25 27.75 10.5 27.75 9.75 27.5C8.75 26.875 8.375 24.6875 8.9375 21.75C9 21.375 9.0625 21 9.125 20.6875C10.5625 21 11.9375 21.1875 13.375 21.3125C14.1875 22.4375 15.125 23.5625 16.0625 24.625C15.875 24.8125 15.6875 25 15.5 25.1875ZM17 23.6875C16.375 23 15.75 22.25 15.125 21.375C15.75 21.4375 16.375 21.4375 17 21.4375C17.625 21.4375 18.25 21.4375 18.875 21.375C18.3125 22.1875 17.6875 22.9375 17 23.6875ZM25.1875 25.5625C25.125 26.3125 24.75 27 24.1875 27.5C23.1875 28.0625 21.0625 27.3125 18.75 25.375C18.5 25.125 18.25 24.875 17.9375 24.625C18.9375 23.5625 19.8125 22.5 20.625 21.3125C22.0625 21.1875 23.4375 20.9375 24.875 20.625C24.9375 20.875 25 21.125 25.0625 21.375C25.3125 22.75 25.375 24.1875 25.1875 25.5625ZM26.3125 18.8125C26.125 18.875 26 18.9375 25.8125 19C25.375 17.625 24.8125 16.3125 24.1875 15C24.8125 13.75 25.3125 12.4375 25.75 11.0625C26.0625 11.1875 26.375 11.25 26.6875 11.375C29.5625 12.375 31.625 13.875 31.625 15C31.625 16.1875 29.4375 17.8125 26.3125 18.8125ZM17 17.875C18.5625 17.875 19.8125 16.625 19.8125 15C19.8125 13.4375 18.5625 12.1875 17 12.1875C15.375 12.1875 14.125 13.4375 14.125 15C14.125 16.625 15.375 17.875 17 17.875Z" stroke="white" stroke-width="0.4" mask="url(#path-1-outside-1_103:36)"/>
</svg>
