<svg width="71" height="66" viewBox="0 0 71 66" fill="none" xmlns="http://www.w3.org/2000/svg">
<path d="M34.0724 32.0126C36.0514 32.0126 38.1128 32.0306 40.2566 32.0668L40.8132 32.555C40.9781 32.6997 41.1636 32.8443 41.3698 32.989C41.5759 33.1336 41.7614 33.2783 41.9264 33.4229C42.2993 33.2742 42.6304 33.1133 42.9196 32.9402C42.888 33.9656 42.8491 35.056 42.8031 36.2114C41.4426 36.103 39.8553 36.103 38.0412 36.2114C36.2684 36.3199 34.4338 36.4103 32.5373 36.4827C31.8364 36.5188 31.1768 36.555 30.5583 36.5912C29.9399 36.6273 29.3009 36.6816 28.6412 36.7539C28.6794 35.032 28.7175 33.4144 28.7556 31.9011L28.8777 31.9041C30.3206 31.9402 32.0522 31.9764 34.0724 32.0126Z" fill="#111010"/>
<path d="M28.8823 27.2541C30.6444 27.2803 32.4363 27.2933 34.2579 27.2933C32.9799 26.3169 31.6812 25.3405 30.3619 24.3641C29.9018 24.011 29.4517 23.6755 29.0117 23.3575C28.9707 24.4476 28.9296 25.6765 28.8886 27.0442L28.8823 27.2541Z" fill="#111010"/>
<path d="M42.9119 22.078C42.7485 22.1526 42.5849 22.2276 42.4211 22.3028C40.6483 23.0984 39.1022 23.7855 37.7829 24.3641L39.4527 25.8287C39.9886 26.2627 40.4834 26.7328 40.9369 27.2391C41.6484 27.2249 42.3441 27.2135 43.0239 27.2049C43.0246 26.2251 43.0129 25.3579 42.9886 24.6032C42.957 23.6045 42.9314 22.7628 42.9119 22.078Z" fill="#111010"/>
<path fill-rule="evenodd" clip-rule="evenodd" d="M71 0H0V66H71V0ZM23.0527 27.11C22.7632 27.0992 22.4785 27.088 22.1987 27.0763C20.4671 27.004 18.9829 26.9498 17.7461 26.9136C16.5092 26.8413 15.6435 26.8051 15.1487 26.8051C14.654 26.8051 14.2211 26.8232 13.85 26.8594C13.4377 26.8594 13.0873 26.9136 12.7987 27.0221C12.5101 27.1306 12.3246 27.3114 12.2421 27.5645C12.1184 27.8177 12.0772 28.1974 12.1184 28.7037C12.1597 29.1015 12.2421 29.4992 12.3658 29.897C12.572 30.6565 12.9636 31.434 13.5408 32.2295C14.0356 32.0849 14.8395 31.9764 15.9527 31.9041C17.0658 31.8318 18.3439 31.7956 19.7869 31.7956C20.7683 31.7703 21.8002 31.7627 22.8826 31.7728C22.8438 33.5541 22.805 35.4315 22.7662 37.4048C22.189 37.4771 21.5912 37.5495 20.9728 37.6218C20.4368 37.6941 19.8596 37.7845 19.2412 37.893C18.6228 37.9654 18.0456 38.0377 17.5096 38.11C17.5096 38.7609 17.6127 39.3757 17.8189 39.9543C18.0662 40.5329 18.396 41.0392 18.8083 41.4732C19.2206 41.9071 19.6741 42.2326 20.1689 42.4496C20.7048 42.6304 21.2202 42.6484 21.7149 42.5038C21.8798 42.4676 22.0241 42.4315 22.1478 42.3953C22.3127 42.3591 22.4982 42.323 22.7044 42.2868C22.6632 44.3119 22.6219 46.2286 22.5807 48.0367C22.5807 49.8087 22.5601 51.4179 22.5189 52.8645C22.5189 54.311 22.4982 55.5405 22.457 56.5531V58.7771C22.457 59.1026 22.6632 59.2653 23.0754 59.2653C23.9412 59.2653 24.704 59.1568 25.3636 58.9398C26.0232 58.759 26.5798 58.524 27.0333 58.2347C27.5281 57.9815 27.9197 57.7103 28.2083 57.421C28.5382 57.1317 28.7855 56.8966 28.9504 56.7158C29.1154 56.5712 29.1772 56.318 29.136 55.9564C29.0535 55.5224 28.9711 54.8534 28.8886 53.9494C28.8061 53.0091 28.7237 51.9061 28.6412 50.6405C28.6 49.3386 28.5588 47.9101 28.5176 46.3551C28.4763 44.764 28.4763 43.0824 28.5176 41.3104C30.579 41.0573 32.6816 40.8765 34.8254 40.768C37.0105 40.6595 39.0307 40.6595 40.886 40.768C41.2158 40.8041 41.5044 40.8403 41.7518 40.8765C41.9991 40.8765 42.2671 40.8945 42.5557 40.9307C42.432 43.6429 42.3083 46.102 42.1847 48.3079C42.061 50.5139 41.9579 52.3943 41.8755 53.9494C41.8342 54.2025 41.793 54.528 41.7518 54.9258V56.987C41.793 57.2402 41.8548 57.4752 41.9373 57.6922C42.0197 57.9454 42.164 58.1442 42.3702 58.2889C42.6176 58.4697 42.9268 58.542 43.2978 58.5059C43.9575 58.4336 44.6171 58.3251 45.2768 58.1804C45.854 58.0358 46.4518 57.8549 47.0702 57.638C47.6886 57.421 48.2658 57.1136 48.8018 56.7158C48.5132 54.763 48.3276 52.8283 48.2452 50.9117C48.1627 48.995 48.1215 47.2592 48.1215 45.7042C48.1215 43.8961 48.1627 42.1602 48.2452 40.4968C48.1397 37.411 48.0641 34.6544 48.0186 32.227L48.1106 32.2295C49.3886 32.2657 50.5018 32.32 51.45 32.3923C52.3983 32.4646 53.3465 32.555 54.2948 32.6635C55.1194 32.7358 55.9645 32.8262 56.8303 32.9347L58.9948 33.2059C59.036 32.0849 58.9742 31.1447 58.8093 30.3852C58.6443 29.5897 58.397 28.9749 58.0672 28.5409C57.7373 28.0708 57.3457 27.7273 56.8922 27.5103C56.4799 27.2933 56.0264 27.1848 55.5316 27.1848H53.6764C52.7693 27.1487 51.6768 27.1306 50.3987 27.1306C49.6394 27.1306 48.8391 27.1366 47.9978 27.1485V24.2234C48.039 22.3791 48.0597 20.9507 48.0597 19.9381L48.0655 19.7895C49.5115 19.1263 50.8252 18.5357 52.0066 18.0175C53.3259 17.4028 54.2123 16.9688 54.6658 16.7157C55.9851 16.0647 57.1189 15.3234 58.0672 14.4916C59.0566 13.6237 59.572 12.7016 59.6132 11.7252C59.6132 11.2551 59.572 10.7307 59.4895 10.1521C59.4071 9.68197 59.2834 9.15761 59.1185 8.579C58.9536 7.96423 58.7062 7.34946 58.3764 6.73469L57.5106 7.87382C57.2632 8.16313 56.954 8.47051 56.5829 8.79598C56.2119 9.12145 55.7378 9.50116 55.1606 9.93511C54.5834 10.3691 53.7794 10.9296 52.7487 11.6167C52.0066 12.1591 50.8729 12.8462 49.3474 13.678C47.7808 14.5097 46.0904 15.3957 44.2764 16.3359L38.7106 19.0482C36.8141 19.9161 35.1856 20.6755 33.825 21.3264C32.1347 20.0607 30.4031 18.8312 28.6303 17.6378C26.8163 16.4444 25.0847 15.3595 23.4356 14.3831C21.7864 13.4068 20.3022 12.575 18.9829 11.8879C17.6224 11.1646 16.5505 10.6765 15.7671 10.4233C14.8601 10.1702 14.0149 10.0978 13.2316 10.2063C12.4483 10.2787 12.0566 10.7126 12.0566 11.5082C12.0566 11.8698 12.1391 12.2676 12.304 12.7016C12.4277 13.0994 12.6132 13.5695 12.8605 14.1119C13.1079 14.6544 13.4584 15.233 13.9119 15.8477C14.8189 15.8477 16.4268 16.354 18.7356 17.3666C20.2257 18.032 21.876 18.8926 23.6866 19.9484C23.5265 20.1077 23.4465 20.267 23.4465 20.4263C23.4053 20.788 23.3434 21.4931 23.261 22.5419C23.2197 23.5544 23.1579 24.8201 23.0754 26.339C23.0685 26.5898 23.0609 26.8468 23.0527 27.11Z" fill="#111010"/>
</svg>
