<svg width="71" height="88" viewBox="0 0 71 88" fill="none" xmlns="http://www.w3.org/2000/svg">
<path d="M63.9171 69.0029C64.1395 68.8433 64.2899 68.7635 64.3684 68.7635C64.4339 68.7635 64.5123 68.8311 64.6039 68.9661C64.6955 69.0889 64.7413 69.3283 64.7413 69.6843C64.7413 70.3964 64.5123 70.9365 64.0545 71.3048C63.5966 71.6731 62.9752 71.9432 62.1902 72.1151C62.2426 71.5995 62.3669 71.1391 62.5631 70.734C62.7724 70.3166 62.9948 69.9605 63.2303 69.6659C63.4788 69.3712 63.7078 69.1503 63.9171 69.0029Z" fill="#010101"/>
<path d="M19.6235 12.0727C19.8459 11.9131 19.9963 11.8333 20.0748 11.8333C20.1402 11.8333 20.2187 11.9008 20.3103 12.0358C20.4019 12.1586 20.4476 12.398 20.4476 12.754C20.4476 13.4661 20.2187 14.0063 19.7608 14.3746C19.3029 14.7429 18.6815 15.013 17.8966 15.1848C17.9489 14.6692 18.0732 14.2088 18.2694 13.8037C18.4788 13.3863 18.7012 13.0303 18.9366 12.7356C19.1852 12.441 19.4141 12.22 19.6235 12.0727Z" fill="#010101"/>
<path d="M26.5238 10.0838C26.4322 10.1329 26.3472 10.1575 26.2687 10.1575C26.1641 10.1575 26.1117 10.0961 26.1117 9.97334C26.1117 9.89967 26.1379 9.82601 26.1902 9.75235C26.2556 9.66642 26.3341 9.59275 26.4257 9.53137C26.5173 9.45771 26.6089 9.39633 26.7004 9.34722C26.8051 9.29811 26.8901 9.27356 26.9555 9.27356C27.0602 9.27356 27.1125 9.32267 27.1125 9.42088C27.1125 9.48226 27.0798 9.55592 27.0144 9.64186C26.9621 9.7278 26.8901 9.8076 26.7985 9.88126C26.7201 9.95492 26.6285 10.0224 26.5238 10.0838Z" fill="#010101"/>
<path d="M50.8749 10.0838C50.7833 10.1329 50.6983 10.1575 50.6198 10.1575C50.5151 10.1575 50.4628 10.0961 50.4628 9.97334C50.4628 9.89967 50.4889 9.82601 50.5413 9.75235C50.6067 9.66642 50.6852 9.59275 50.7768 9.53137C50.8683 9.45771 50.9599 9.39633 51.0515 9.34722C51.1561 9.29811 51.2412 9.27356 51.3066 9.27356C51.4112 9.27356 51.4636 9.32267 51.4636 9.42088C51.4636 9.48226 51.4309 9.55592 51.3655 9.64186C51.3131 9.7278 51.2412 9.8076 51.1496 9.88126C51.0711 9.95492 50.9795 10.0224 50.8749 10.0838Z" fill="#010101"/>
<path d="M28.4784 56.3592C30.5113 56.3592 32.6289 56.3774 34.8312 56.4138L35.403 56.9045C35.5724 57.0499 35.763 57.1953 35.9748 57.3406C36.1865 57.486 36.3771 57.6314 36.5465 57.7768C36.9296 57.6274 37.2697 57.4657 37.5669 57.2916C37.5344 58.3223 37.4944 59.4183 37.4471 60.5797C36.0495 60.4706 34.419 60.4706 32.5555 60.5797C30.7343 60.6887 28.8497 60.7796 26.9015 60.8523C26.1815 60.8886 25.5038 60.925 24.8686 60.9613C24.2333 60.9977 23.5768 61.0522 22.8992 61.1249C22.9383 59.3941 22.9775 57.7682 23.0166 56.2472L23.1421 56.2502C24.6244 56.2865 26.4032 56.3229 28.4784 56.3592Z" fill="#010101"/>
<path d="M23.1469 51.5764C24.957 51.6027 26.7977 51.6158 28.669 51.6158C27.3561 50.6344 26.022 49.653 24.6667 48.6716C24.1941 48.3166 23.7318 47.9794 23.2797 47.6598C23.2376 48.7555 23.1954 49.9907 23.1533 51.3653L23.1469 51.5764Z" fill="#010101"/>
<path d="M37.5589 46.3738L37.3353 46.4738C37.2419 46.5157 37.1483 46.5576 37.0547 46.5997C35.2336 47.3994 33.6454 48.09 32.2901 48.6716L34.0054 50.1437C34.556 50.5798 35.0642 51.0524 35.53 51.5613C36.261 51.547 36.9756 51.5355 37.674 51.5269C37.6747 50.5421 37.6626 49.6704 37.6377 48.9118C37.6052 47.9081 37.579 47.062 37.5589 46.3738Z" fill="#010101"/>
<path fill-rule="evenodd" clip-rule="evenodd" d="M71 0H0V88H71V0ZM65.5851 13.9415C65.3365 13.696 65.0749 13.518 64.8002 13.4075C65.2057 13.0637 65.5393 12.7384 65.8009 12.4315C66.0626 12.1123 66.2654 11.8238 66.4093 11.566C66.5663 11.2959 66.6644 11.0688 66.7036 10.8846C66.756 10.6882 66.7625 10.5408 66.7232 10.4426C66.6709 10.3076 66.4943 10.2462 66.1934 10.2585C66.0757 10.2585 65.9449 10.283 65.8009 10.3321C65.6832 10.369 65.5458 10.4242 65.3889 10.4979C65.2449 10.5593 65.1011 10.6391 64.9571 10.7373C64.931 11.0933 64.8329 11.4309 64.6628 11.7501C64.4927 12.057 64.2834 12.3455 64.0348 12.6156C63.7863 12.8857 63.5246 13.1313 63.2499 13.3522C62.9752 13.5732 62.7135 13.7758 62.465 13.9599C62.4781 13.6776 62.4846 13.3829 62.4846 13.076C62.4977 12.7691 62.5173 12.4499 62.5435 12.1184C62.5696 11.566 62.6023 10.9521 62.6416 10.2769C62.6677 9.69989 62.7005 9.03694 62.7397 8.28806C62.7789 7.53917 62.8182 6.74118 62.8574 5.89408C62.8705 5.78359 62.7724 5.72835 62.5631 5.72835C62.3669 5.72835 62.1445 5.75904 61.8959 5.82042C61.6473 5.88181 61.4184 5.96775 61.2091 6.07824C61.0128 6.17645 60.9147 6.27467 60.9147 6.37288L61.0325 17.1273C61.0456 17.5202 61.1502 17.7596 61.3464 17.8455C61.5558 17.9438 61.7912 17.956 62.0529 17.8824C62.1314 17.8701 62.2164 17.8455 62.308 17.8087C62.3734 17.7842 62.4519 17.7535 62.5435 17.7166C62.635 17.6675 62.7266 17.6123 62.8182 17.5509C62.7135 17.4036 62.6285 17.1151 62.5631 16.6854C62.5108 16.2557 62.4781 15.7094 62.465 15.0464C62.6481 14.9482 62.8574 14.8254 63.0929 14.6781C63.3415 14.5185 63.6097 14.3344 63.8975 14.1257C64.0676 14.1993 64.2049 14.3037 64.3096 14.4387C64.4273 14.5738 64.5189 14.7211 64.5843 14.8807C64.6497 15.0403 64.6955 15.206 64.7217 15.3779C64.7478 15.5498 64.7674 15.7155 64.7805 15.8751C64.8198 16.2557 64.8786 16.624 64.9571 16.98C65.0356 17.3361 65.1534 17.6491 65.3104 17.9192C65.4674 18.1893 65.6832 18.3919 65.9579 18.5269C66.2327 18.6742 66.5859 18.7295 67.0176 18.6926C67.2008 18.6926 67.3774 18.6681 67.5474 18.619C67.6913 18.5944 67.8418 18.5515 67.9988 18.4901C68.1688 18.4287 68.3127 18.3489 68.4305 18.2507C67.9857 18.1033 67.6194 17.9315 67.3316 17.735C67.0568 17.5263 66.8344 17.2931 66.6644 17.0353C66.4943 16.7652 66.3635 16.4644 66.2719 16.1329C66.1803 15.8015 66.1084 15.427 66.0561 15.0096C65.9906 14.5308 65.8337 14.1748 65.5851 13.9415ZM69.5526 41.7702C69.4087 41.7457 69.2124 41.7211 68.9639 41.6965C68.7284 41.672 68.4864 41.6536 68.2378 41.6413C67.95 41.629 67.6426 41.6229 67.3155 41.6229C66.9884 41.5983 66.5764 41.5983 66.0792 41.6229C65.5952 41.6352 65.085 41.6413 64.5486 41.6413C64.5355 41.9605 64.5094 42.2858 64.4701 42.6173C64.4583 42.7665 64.4466 42.9145 64.4348 43.0612C64.4204 43.2404 64.406 43.4178 64.3916 43.5933C64.3262 44.1826 64.2673 44.7842 64.215 45.398C64.1758 46.0118 64.1561 46.595 64.1561 47.1474C64.1561 47.6999 64.1889 48.2032 64.2543 48.6575C64.3327 49.0995 64.4701 49.4493 64.6664 49.7072C64.5094 49.8176 64.3393 49.9036 64.1561 49.965C63.973 50.0141 63.8095 50.0509 63.6656 50.0755C63.4955 50.1123 63.3254 50.1307 63.1553 50.1307C62.9984 50.1307 62.8675 50.0816 62.7629 49.9834C62.6582 49.8852 62.5994 49.7133 62.5863 49.4678C62.5601 49.0503 62.5536 48.6329 62.5666 48.2155C62.5928 47.7858 62.619 47.3377 62.6451 46.8712C62.6844 46.4047 62.7236 45.9075 62.7629 45.3796C62.8021 44.8394 62.8414 44.2501 62.8806 43.6117C62.9199 42.9488 62.9395 42.3043 62.9395 41.6781C62.4424 41.6904 62.0237 41.6965 61.6836 41.6965C61.3435 41.6965 61.1538 41.6904 61.1145 41.6781C61.0753 41.6536 61.0295 41.5983 60.9772 41.5124C60.9248 41.4387 60.8594 41.3282 60.7809 41.1809C60.6893 41.0336 60.5781 40.8249 60.4473 40.5548H61.2715C61.5593 40.5548 61.8275 40.5487 62.0761 40.5364L62.9395 40.4996C62.9264 40.3031 62.9199 40.0944 62.9199 39.8734C62.9068 39.7016 62.9002 39.5113 62.9002 39.3026C62.9002 39.0816 62.8937 38.879 62.8806 38.6949C62.8806 38.6212 62.9722 38.5353 63.1553 38.4371C63.3516 38.3266 63.5609 38.2284 63.7833 38.1424C64.0057 38.0565 64.2085 38.0012 64.3916 37.9767C64.5879 37.9521 64.686 37.9951 64.686 38.1056C64.686 38.2161 64.6794 38.4862 64.6664 38.9159C64.6664 39.3333 64.6533 39.8428 64.6271 40.4443C64.7579 40.4443 64.856 40.4382 64.9215 40.4259C65.6148 40.4013 66.1708 40.3768 66.5894 40.3522C67.0212 40.3154 67.3744 40.3093 67.6491 40.3338C67.9238 40.3584 68.1658 40.4198 68.3752 40.518C68.5845 40.6162 68.82 40.7758 69.0816 40.9968C69.1732 41.0704 69.2517 41.1502 69.3171 41.2362C69.3825 41.3098 69.4348 41.3958 69.4741 41.494C69.5264 41.5799 69.5526 41.672 69.5526 41.7702ZM66.6251 27.6089C66.5728 27.5353 66.5336 27.4555 66.5074 27.3695C66.4812 27.2836 66.4681 27.0749 66.4681 26.7434C66.4812 26.3997 66.4943 26.0007 66.5074 25.5464C66.5336 25.0922 66.5597 24.6134 66.5859 24.1101C66.612 23.5944 66.6317 23.1218 66.6448 22.6921C66.6709 22.2501 66.684 21.888 66.684 21.6056C66.684 21.3109 66.6709 21.1575 66.6448 21.1452C66.6055 21.1329 66.527 21.1329 66.4093 21.1452C66.2915 21.1452 66.1607 21.1636 66.0168 21.2005C65.8729 21.2373 65.7421 21.2864 65.6243 21.3478C65.5066 21.3969 65.4281 21.4521 65.3889 21.5135C65.3627 21.5995 65.3234 21.7713 65.2711 22.0291C65.2319 22.2501 65.1861 22.5755 65.1338 23.0051C65.0945 23.4226 65.0422 23.9996 64.9768 24.7362C64.8067 25.2518 64.6235 25.6569 64.4273 25.9516C64.2442 26.2462 64.0676 26.4672 63.8975 26.6145C63.7012 26.7864 63.4985 26.903 63.2892 26.9644C62.9359 27.0258 62.6547 26.8723 62.4454 26.504C62.2491 26.1357 62.2164 25.6508 62.3472 25.0492C62.4388 24.5704 62.5696 24.1653 62.7397 23.8338C62.9098 23.5024 63.106 23.22 63.3284 22.9867C63.5639 22.7535 63.819 22.557 64.0937 22.3974C64.3684 22.2256 64.6628 22.0721 64.9768 21.9371C64.9506 21.8388 64.9179 21.7529 64.8786 21.6793C64.8394 21.5933 64.8067 21.5258 64.7805 21.4767C64.7413 21.4276 64.7086 21.3846 64.6824 21.3478C64.6039 21.2496 64.5123 21.1943 64.4077 21.182C64.303 21.1698 64.1787 21.182 64.0348 21.2189C63.9825 21.2311 63.8648 21.2741 63.6816 21.3478C63.5116 21.4092 63.3022 21.5135 63.0537 21.6608C62.8182 21.7959 62.5696 21.9739 62.308 22.1949C62.0463 22.4036 61.7978 22.6614 61.5623 22.9683C61.3268 23.2752 61.124 23.6251 60.954 24.018C60.7839 24.4108 60.6792 24.8589 60.64 25.3623C60.6008 25.8411 60.6335 26.2708 60.7381 26.6513C60.8428 27.0319 60.9932 27.3573 61.1895 27.6274C61.3988 27.8852 61.6473 28.0816 61.9351 28.2166C62.236 28.3394 62.55 28.3885 62.8771 28.364C63.1387 28.3394 63.3938 28.2596 63.6424 28.1246C63.8648 28.0263 64.0872 27.8729 64.3096 27.6642C64.5451 27.4432 64.7544 27.1486 64.9375 26.7803C64.9637 27.0626 64.9964 27.2959 65.0356 27.48C65.088 27.6519 65.1468 27.787 65.2122 27.8852C65.2777 28.0079 65.3496 28.1 65.4281 28.1614C65.6505 28.2964 65.8794 28.364 66.1149 28.364C66.3504 28.364 66.527 28.3455 66.6448 28.3087C66.684 28.2964 66.7298 28.2719 66.7821 28.2351C66.8737 28.1737 66.9653 28.057 67.0568 27.8852C66.9522 27.8729 66.8606 27.8422 66.7821 27.7931C66.7167 27.7317 66.6644 27.6703 66.6251 27.6089ZM62.8771 66.5303C62.864 66.6039 62.792 66.6837 62.6612 66.7697C62.5435 66.8433 62.3996 66.9109 62.2295 66.9722C62.0725 67.0336 61.9221 67.0704 61.7782 67.0827C61.6343 67.1073 61.5361 67.095 61.4838 67.0459C61.4315 66.9968 61.3464 66.9047 61.2287 66.7697C61.111 66.6346 61.039 66.4136 61.0128 66.1067C60.9867 65.7875 60.9736 65.3885 60.9736 64.9097C60.9736 64.4187 60.9671 63.8785 60.954 63.2892V62.5526C60.954 62.3316 60.9474 62.0738 60.9343 61.7792C60.9343 61.4845 60.9278 61.1776 60.9147 60.8584C61.0325 60.797 61.1502 60.7418 61.2679 60.6927C61.3988 60.6313 61.5165 60.5822 61.6212 60.5453C61.7389 60.4962 61.8501 60.4594 61.9548 60.4348C62.2295 60.3612 62.4388 60.3182 62.5827 60.3059C62.7266 60.2937 62.8117 60.3366 62.8378 60.4348C62.8509 60.5085 62.8444 60.6865 62.8182 60.9689C62.792 61.2144 62.7593 61.5889 62.7201 62.0922C62.6808 62.5833 62.6154 63.2708 62.5238 64.1547C62.6939 63.7619 62.8313 63.4242 62.9359 63.1419C63.0537 62.8595 63.1518 62.6324 63.2303 62.4605C63.3088 62.2518 63.3807 62.0861 63.4461 61.9633C63.5116 61.8037 63.5966 61.6257 63.7012 61.4293C63.8059 61.2328 63.9106 61.0487 64.0152 60.8768C64.133 60.7049 64.2376 60.5515 64.3292 60.4164C64.4339 60.2814 64.5123 60.2016 64.5647 60.177C64.6039 60.1525 64.7217 60.1525 64.9179 60.177C65.1141 60.2016 65.3234 60.263 65.5458 60.3612C65.7682 60.4471 65.9841 60.576 66.1934 60.7479C66.4027 60.9075 66.5401 61.1039 66.6055 61.3372C66.684 61.6073 66.7102 61.9633 66.684 62.4053C66.6709 62.8472 66.6382 63.3015 66.5859 63.768C66.5466 64.2345 66.5139 64.6765 66.4878 65.0939C66.4616 65.5113 66.4878 65.8305 66.5663 66.0515C66.5924 66.1742 66.6317 66.2847 66.684 66.3829C66.7102 66.4812 66.7429 66.5732 66.7821 66.6592C66.8344 66.7328 66.8868 66.7881 66.9391 66.8249C66.6251 66.96 66.37 67.0582 66.1738 67.1196C65.9776 67.1809 65.8271 67.2239 65.7225 67.2485C65.5916 67.2853 65.5001 67.2976 65.4477 67.2853C65.33 67.2485 65.2253 67.1564 65.1338 67.0091C65.0553 66.8617 64.9833 66.6285 64.9179 66.3093C64.8917 66.2111 64.8786 66.0515 64.8786 65.8305C64.8917 65.5972 64.9114 65.3394 64.9375 65.0571C64.9484 64.9342 64.9594 64.8104 64.9703 64.6854C64.9855 64.5106 65.0008 64.3337 65.016 64.1547C65.0553 63.8355 65.0814 63.5409 65.0945 63.2708C65.1207 62.9884 65.1403 62.749 65.1534 62.5526C65.1665 62.3439 65.1665 62.2027 65.1534 62.129C65.088 61.9081 64.9964 61.7546 64.8786 61.6687C64.7609 61.5704 64.6693 61.5582 64.6039 61.6318C64.4339 61.816 64.2507 62.1168 64.0545 62.5342C63.8713 62.9393 63.6947 63.3874 63.5246 63.8785C63.3546 64.3573 63.2107 64.8361 63.0929 65.3149C62.9752 65.7937 62.9032 66.1988 62.8771 66.5303ZM66.6251 57.7964C66.5728 57.7228 66.5336 57.643 66.5074 57.557C66.4812 57.4711 66.4681 57.2624 66.4681 56.9309C66.4812 56.5872 66.4943 56.1882 66.5074 55.7339C66.5336 55.2797 66.5597 54.8009 66.5859 54.2976C66.612 53.7819 66.6317 53.3093 66.6448 52.8796C66.6709 52.4376 66.684 52.0755 66.684 51.7931C66.684 51.4985 66.6709 51.345 66.6448 51.3327C66.6055 51.3204 66.527 51.3204 66.4093 51.3327C66.2915 51.3327 66.1607 51.3511 66.0168 51.388C65.8729 51.4248 65.7421 51.4739 65.6243 51.5353C65.5066 51.5844 65.4281 51.6396 65.3889 51.701C65.3627 51.787 65.3234 51.9588 65.2711 52.2166C65.2319 52.4376 65.1861 52.763 65.1338 53.1926L65.1163 53.3795C65.1072 53.4778 65.0975 53.5834 65.0872 53.6961C65.0558 54.0387 65.019 54.4479 64.9768 54.9237C64.8067 55.4393 64.6235 55.8444 64.4273 56.1391C64.2442 56.4337 64.0676 56.6547 63.8975 56.802C63.7012 56.9739 63.4985 57.0905 63.2892 57.1519C62.9359 57.2133 62.6547 57.0598 62.4454 56.6915C62.2491 56.3232 62.2164 55.8383 62.3472 55.2367C62.4388 54.7579 62.5696 54.3528 62.7397 54.0213C62.9098 53.6899 63.106 53.4075 63.3284 53.1742C63.5639 52.941 63.819 52.7445 64.0937 52.5849C64.3684 52.4131 64.6628 52.2596 64.9768 52.1246C64.9506 52.0264 64.9179 51.9404 64.8786 51.8668C64.8394 51.7808 64.8067 51.7133 64.7805 51.6642C64.7413 51.6151 64.7086 51.5721 64.6824 51.5353C64.6039 51.4371 64.5123 51.3818 64.4077 51.3695C64.303 51.3573 64.1787 51.3695 64.0348 51.4064C63.9825 51.4187 63.8648 51.4616 63.6816 51.5353C63.5116 51.5967 63.3022 51.701 63.0537 51.8483C62.8182 51.9834 62.5696 52.1614 62.308 52.3824C62.0463 52.5911 61.7978 52.8489 61.5623 53.1558C61.3268 53.4627 61.124 53.8126 60.954 54.2055C60.7839 54.5983 60.6792 55.0464 60.64 55.5498C60.6008 56.0286 60.6335 56.4583 60.7381 56.8389C60.8428 57.2194 60.9932 57.5448 61.1895 57.8149C61.3988 58.0727 61.6473 58.2691 61.9351 58.4041C62.236 58.5269 62.55 58.576 62.8771 58.5515C63.1387 58.5269 63.3938 58.4471 63.6424 58.3121C63.8648 58.2139 64.0872 58.0604 64.3096 57.8517C64.5451 57.6307 64.7544 57.3361 64.9375 56.9678C64.9637 57.2501 64.9964 57.4834 65.0356 57.6675C65.088 57.8394 65.1468 57.9745 65.2122 58.0727C65.2777 58.1954 65.3496 58.2875 65.4281 58.3489C65.6505 58.4839 65.8794 58.5515 66.1149 58.5515C66.3504 58.5515 66.527 58.5331 66.6448 58.4962C66.684 58.4839 66.7298 58.4594 66.7821 58.4226C66.8737 58.3612 66.9653 58.2445 67.0568 58.0727C66.9522 58.0604 66.8606 58.0297 66.7821 57.9806C66.7167 57.9192 66.6644 57.8578 66.6251 57.7964ZM62.8771 83.5928C62.864 83.6665 62.792 83.7463 62.6612 83.8322C62.5435 83.9058 62.3996 83.9734 62.2295 84.0348C62.0725 84.0961 61.9221 84.133 61.7782 84.1452C61.6343 84.1698 61.5361 84.1575 61.4838 84.1084C61.4315 84.0593 61.3464 83.9672 61.2287 83.8322C61.111 83.6971 61.039 83.4762 61.0128 83.1692C60.9867 82.85 60.9736 82.451 60.9736 81.9723C60.9736 81.4812 60.9671 80.941 60.954 80.3517V79.6151C60.954 79.3941 60.9474 79.1363 60.9343 78.8417C60.9343 78.547 60.9278 78.2401 60.9147 77.9209C61.0325 77.8595 61.1502 77.8043 61.2679 77.7552C61.3988 77.6938 61.5165 77.6447 61.6212 77.6079C61.7389 77.5587 61.8501 77.5219 61.9548 77.4974C62.2295 77.4237 62.4388 77.3807 62.5827 77.3685C62.7266 77.3562 62.8117 77.3992 62.8378 77.4974C62.8509 77.571 62.8444 77.749 62.8182 78.0314C62.792 78.2769 62.7593 78.6514 62.7201 79.1547C62.6808 79.6458 62.6154 80.3333 62.5238 81.2172C62.6939 80.8244 62.8313 80.4868 62.9359 80.2044C63.0537 79.922 63.1518 79.6949 63.2303 79.523C63.3088 79.3143 63.3807 79.1486 63.4461 79.0258C63.5116 78.8662 63.5966 78.6882 63.7012 78.4918C63.8059 78.2954 63.9106 78.1112 64.0152 77.9393C64.133 77.7675 64.2376 77.614 64.3292 77.479C64.4339 77.3439 64.5123 77.2641 64.5647 77.2396C64.6039 77.215 64.7217 77.215 64.9179 77.2396C65.1141 77.2641 65.3234 77.3255 65.5458 77.4237C65.7682 77.5096 65.9841 77.6385 66.1934 77.8104C66.4027 77.97 66.5401 78.1665 66.6055 78.3997C66.684 78.6698 66.7102 79.0258 66.684 79.4678C66.6709 79.9098 66.6382 80.364 66.5859 80.8305C66.5466 81.297 66.5139 81.739 66.4878 82.1564C66.4616 82.5738 66.4878 82.893 66.5663 83.114C66.5924 83.2368 66.6317 83.3473 66.684 83.4455C66.7102 83.5437 66.7429 83.6358 66.7821 83.7217C66.8344 83.7954 66.8868 83.8506 66.9391 83.8874C66.6251 84.0225 66.37 84.1207 66.1738 84.1821C65.9776 84.2435 65.8271 84.2864 65.7225 84.311C65.5916 84.3478 65.5001 84.3601 65.4477 84.3478C65.33 84.311 65.2253 84.2189 65.1338 84.0716C65.0553 83.9243 64.9833 83.691 64.9179 83.3718C64.8917 83.2736 64.8786 83.114 64.8786 82.893C64.8917 82.6598 64.9114 82.4019 64.9375 82.1196C64.9517 81.9598 64.9659 81.7983 64.9801 81.6349C64.9921 81.497 65.004 81.3577 65.016 81.2172C65.0553 80.898 65.0814 80.6034 65.0945 80.3333C65.1207 80.0509 65.1403 79.8115 65.1534 79.6151C65.1665 79.4064 65.1665 79.2652 65.1534 79.1916C65.088 78.9706 64.9964 78.8171 64.8786 78.7312C64.7609 78.633 64.6693 78.6207 64.6039 78.6944C64.4339 78.8785 64.2507 79.1793 64.0545 79.5967C63.8713 80.0018 63.6947 80.4499 63.5246 80.941C63.3546 81.4198 63.2107 81.8986 63.0929 82.3774C62.9752 82.8562 62.9032 83.2613 62.8771 83.5928ZM61.3464 74.8958C61.8436 75.4728 62.55 75.7613 63.4658 75.7613C63.9629 75.7613 64.3815 75.657 64.7217 75.4483C65.0749 75.2395 65.3627 75.0002 65.5851 74.7301C65.8075 74.4477 65.9645 74.1715 66.0561 73.9014C66.1607 73.619 66.213 73.4103 66.213 73.2753C66.213 73.1279 66.1607 73.0543 66.0561 73.0543C65.9645 73.0543 65.8991 73.0911 65.8598 73.1648C65.8206 73.2507 65.7486 73.3796 65.644 73.5515C65.5393 73.7111 65.4019 73.8707 65.2319 74.0303C65.0618 74.1899 64.8525 74.3311 64.6039 74.4538C64.3684 74.5766 64.0937 74.638 63.7797 74.638C63.3219 74.638 62.949 74.5029 62.6612 74.2329C62.3734 73.9505 62.2099 73.4594 62.1706 72.7596C62.2884 72.8579 62.4192 72.9315 62.5631 72.9806C62.707 73.0297 62.8836 73.0543 63.0929 73.0543C63.42 73.0543 63.7601 72.9622 64.1133 72.7781C64.4666 72.5939 64.7871 72.3545 65.0749 72.0599C65.3758 71.7529 65.6178 71.4092 65.8009 71.0286C65.9841 70.6358 66.0757 70.2429 66.0757 69.85C66.0757 69.2485 65.9056 68.7881 65.5655 68.4689C65.2253 68.1374 64.8132 67.9717 64.3292 67.9717C63.8321 67.9717 63.3546 68.0945 62.8967 68.34C62.4519 68.5733 62.0594 68.8986 61.7193 69.316C61.3791 69.7334 61.1044 70.2306 60.8951 70.8076C60.6989 71.3724 60.6008 71.9801 60.6008 72.6307C60.6008 73.5638 60.8493 74.3188 61.3464 74.8958ZM62.8771 36.3428C62.864 36.4164 62.792 36.4962 62.6612 36.5822C62.5435 36.6558 62.3996 36.7233 62.2295 36.7847C62.0725 36.8461 61.9221 36.8829 61.7782 36.8952C61.6343 36.9198 61.5361 36.9075 61.4838 36.8584C61.4315 36.8093 61.3464 36.7172 61.2287 36.5822C61.111 36.4471 61.039 36.2261 61.0128 35.9192C60.9867 35.6 60.9736 35.201 60.9736 34.7222C60.9736 34.2312 60.9671 33.691 60.954 33.1017V32.3651C60.954 32.1441 60.9474 31.8863 60.9343 31.5916C60.9343 31.297 60.9278 30.9901 60.9147 30.6709C61.0325 30.6095 61.1502 30.5543 61.2679 30.5052C61.3988 30.4438 61.5165 30.3947 61.6212 30.3578C61.7389 30.3087 61.8501 30.2719 61.9548 30.2473C62.2295 30.1737 62.4388 30.1307 62.5827 30.1184C62.7266 30.1062 62.8117 30.1491 62.8378 30.2473C62.8509 30.321 62.8444 30.499 62.8182 30.7814C62.792 31.0269 62.7593 31.4014 62.7201 31.9047C62.6808 32.3958 62.6154 33.0833 62.5238 33.9672C62.6939 33.5743 62.8313 33.2367 62.9359 32.9544C63.0537 32.672 63.1518 32.4449 63.2303 32.273C63.3088 32.0643 63.3807 31.8986 63.4461 31.7758C63.5116 31.6162 63.5966 31.4382 63.7012 31.2418C63.8059 31.0453 63.9106 30.8612 64.0152 30.6893C64.133 30.5174 64.2376 30.364 64.3292 30.2289C64.4339 30.0939 64.5123 30.0141 64.5647 29.9895C64.6039 29.965 64.7217 29.965 64.9179 29.9895C65.1141 30.0141 65.3234 30.0755 65.5458 30.1737C65.7682 30.2596 65.9841 30.3885 66.1934 30.5604C66.4027 30.72 66.5401 30.9164 66.6055 31.1497C66.684 31.4198 66.7102 31.7758 66.684 32.2178C66.6709 32.6597 66.6382 33.114 66.5859 33.5805C66.5466 34.047 66.5139 34.489 66.4878 34.9064C66.4616 35.3238 66.4878 35.643 66.5663 35.864C66.5924 35.9867 66.6317 36.0972 66.684 36.1954C66.7102 36.2937 66.7429 36.3857 66.7821 36.4717C66.8344 36.5453 66.8868 36.6006 66.9391 36.6374C66.6251 36.7724 66.37 36.8707 66.1738 36.932C65.9776 36.9934 65.8271 37.0364 65.7225 37.061C65.5916 37.0978 65.5001 37.1101 65.4477 37.0978C65.33 37.061 65.2253 36.9689 65.1338 36.8216C65.0553 36.6742 64.9833 36.441 64.9179 36.1218C64.8917 36.0236 64.8786 35.864 64.8786 35.643C64.8917 35.4097 64.9114 35.1519 64.9375 34.8695C64.9637 34.5749 64.9898 34.2741 65.016 33.9672C65.0553 33.648 65.0814 33.3534 65.0945 33.0833C65.1207 32.8009 65.1403 32.5615 65.1534 32.3651C65.1665 32.1564 65.1665 32.0152 65.1534 31.9415C65.088 31.7206 64.9964 31.5671 64.8786 31.4812C64.7609 31.3829 64.6693 31.3707 64.6039 31.4443C64.4339 31.6285 64.2507 31.9293 64.0545 32.3467C63.8713 32.7518 63.6947 33.1999 63.5246 33.691C63.3546 34.1698 63.2107 34.6486 63.0929 35.1274C62.9752 35.6062 62.9032 36.0113 62.8771 36.3428ZM3.61784 14.614C3.7879 14.6753 3.95143 14.6815 4.10842 14.6324C4.16075 14.6201 4.20654 14.6078 4.24578 14.5955C4.265 14.591 4.28509 14.5865 4.30606 14.582C4.32722 14.5775 4.34928 14.5729 4.37223 14.5684C4.3885 14.5652 4.40522 14.5619 4.42239 14.5587C4.40931 15.2462 4.39623 15.8969 4.38315 16.5107C4.38315 17.1123 4.37661 17.6586 4.36352 18.1497C4.36352 18.6407 4.35698 19.0582 4.3439 19.4019V20.1569C4.3439 20.2674 4.40931 20.3227 4.54013 20.3227C4.81486 20.3227 5.05688 20.2858 5.2662 20.2122C5.47552 20.1508 5.65213 20.071 5.79603 19.9728C5.95302 19.8868 6.0773 19.7948 6.16887 19.6966C6.27353 19.5983 6.35203 19.5185 6.40436 19.4572C6.45668 19.408 6.47631 19.3221 6.46323 19.1993C6.43706 19.052 6.4109 18.8249 6.38473 18.518C6.35857 18.1988 6.3324 17.8243 6.30624 17.3947C6.29316 16.9527 6.28007 16.4678 6.26699 15.9399C6.25391 15.3997 6.25391 14.8288 6.26699 14.2272C6.9211 14.1413 7.5883 14.0799 8.26858 14.0431C8.96194 14.0063 9.60297 14.0063 10.1917 14.0431C10.2467 14.0495 10.298 14.056 10.3458 14.0624C10.3696 14.0657 10.3926 14.0689 10.4147 14.0721C10.4325 14.0747 10.4497 14.0773 10.4664 14.0799C10.5449 14.0799 10.6299 14.0861 10.7215 14.0983C10.6823 15.0191 10.643 15.8539 10.6038 16.6028C10.5645 17.3517 10.5318 17.9901 10.5056 18.518C10.4926 18.6039 10.4795 18.7144 10.4664 18.8495V19.5492C10.4795 19.6352 10.4991 19.715 10.5253 19.7886C10.5514 19.8746 10.5972 19.9421 10.6626 19.9912C10.7411 20.0526 10.8392 20.0771 10.957 20.0649C11.1663 20.0403 11.3756 20.0035 11.5849 19.9544C11.7681 19.9053 11.9578 19.8439 12.154 19.7702C12.3502 19.6966 12.5334 19.5922 12.7035 19.4572C12.6119 18.7942 12.553 18.1374 12.5268 17.4867C12.5007 16.8361 12.4876 16.2468 12.4876 15.7189C12.4876 15.105 12.5007 14.5157 12.5268 13.951C12.4876 12.7233 12.4614 11.6491 12.4484 10.7284V8.42646C12.4614 7.80034 12.468 7.31541 12.468 6.97166C12.4811 6.62791 12.4811 6.41307 12.468 6.32713C12.4549 6.27802 12.3633 6.27188 12.1933 6.30871C12.0232 6.33327 11.8335 6.38851 11.6242 6.47445C11.4279 6.54811 11.2448 6.63405 11.0747 6.73226C10.9046 6.83048 10.8196 6.91642 10.8196 6.99008C10.8196 7.14967 10.8327 7.67144 10.8589 8.55537C10.885 9.42702 10.8654 10.7406 10.8 12.4962C10.3683 12.4594 9.86461 12.4594 9.28899 12.4962C8.72645 12.533 8.14429 12.5637 7.54251 12.5883C7.32011 12.6006 7.1108 12.6128 6.91456 12.6251C6.71833 12.6374 6.51555 12.6558 6.30624 12.6804C6.3324 11.4159 6.35857 10.3171 6.38473 9.38405C6.4109 8.45101 6.43706 7.70827 6.46323 7.15581C6.46323 6.76296 6.42398 6.499 6.34549 6.36396C6.28007 6.21664 6.13617 6.18595 5.91377 6.27188C5.65213 6.38238 5.41665 6.50514 5.20733 6.64019C5.0111 6.77523 4.86065 6.87958 4.75599 6.95325C4.69058 7.01463 4.65787 7.07601 4.65787 7.1374C4.64479 7.26017 4.62517 7.49956 4.599 7.85559C4.58592 8.19934 4.5663 8.62903 4.54013 9.14465C4.52705 9.648 4.50743 10.225 4.48126 10.8757C4.46818 11.5141 4.4551 12.1893 4.44202 12.9013C4.25887 12.9259 4.06917 12.9505 3.87294 12.975C3.70287 12.9996 3.51972 13.0303 3.32348 13.0671C3.12725 13.0916 2.9441 13.1162 2.77403 13.1407C2.77403 13.3617 2.80674 13.5704 2.87215 13.7669C2.95064 13.9633 3.0553 14.1352 3.18612 14.2825C3.31694 14.4298 3.46085 14.5403 3.61784 14.614ZM17.0528 17.9655C17.5499 18.5425 18.2564 18.831 19.1721 18.831C19.6692 18.831 20.0879 18.7267 20.428 18.518C20.7812 18.3093 21.069 18.0699 21.2914 17.7998C21.5138 17.5174 21.6708 17.2412 21.7624 16.9711C21.8671 16.6887 21.9194 16.48 21.9194 16.345C21.9194 16.1977 21.8671 16.124 21.7624 16.124C21.6708 16.124 21.6054 16.1608 21.5662 16.2345C21.5269 16.3204 21.455 16.4493 21.3503 16.6212C21.2457 16.7808 21.1083 16.9404 20.9382 17.1C20.7682 17.2596 20.5588 17.4008 20.3103 17.5236C20.0748 17.6463 19.8001 17.7077 19.4861 17.7077C19.0282 17.7077 18.6554 17.5727 18.3676 17.3026C18.0798 17.0202 17.9162 16.5291 17.877 15.8294C17.9947 15.9276 18.1255 16.0012 18.2694 16.0503C18.4134 16.0995 18.59 16.124 18.7993 16.124C19.1263 16.124 19.4665 16.0319 19.8197 15.8478C20.1729 15.6636 20.4934 15.4242 20.7812 15.1296C21.0821 14.8227 21.3242 14.4789 21.5073 14.0983C21.6905 13.7055 21.782 13.3126 21.782 12.9198C21.782 12.3182 21.612 11.8578 21.2718 11.5386C20.9317 11.2072 20.5196 11.0414 20.0356 11.0414C19.5384 11.0414 19.0609 11.1642 18.603 11.4097C18.1582 11.643 17.7658 11.9683 17.4256 12.3857C17.0855 12.8031 16.8108 13.3003 16.6015 13.8774C16.4052 14.4421 16.3071 15.0498 16.3071 15.7005C16.3071 16.6335 16.5557 17.3885 17.0528 17.9655ZM25.6996 11.8701C25.4903 11.956 25.3857 12.0358 25.3857 12.1095C25.3987 12.3919 25.4249 12.8154 25.4642 13.3801C25.5034 13.9326 25.4969 14.7183 25.4445 15.7373C25.4184 16.2529 25.4118 16.6949 25.4249 17.0632C25.438 17.4192 25.4576 17.7138 25.4838 17.9471C25.5099 18.1681 25.5361 18.34 25.5623 18.4627C25.5884 18.5855 25.6146 18.6714 25.6408 18.7205C25.6538 18.7697 25.7323 18.7942 25.8762 18.7942C26.0201 18.7942 26.1706 18.7758 26.3276 18.739C26.4846 18.7144 26.6285 18.6714 26.7593 18.6101C26.8901 18.5487 26.9555 18.4873 26.9555 18.4259C26.9424 18.0822 26.9424 17.7445 26.9555 17.4131C26.9686 17.0816 26.9882 16.7808 27.0144 16.5107C27.0406 16.1915 27.0667 15.8969 27.0929 15.6268C27.106 15.369 27.1321 15.0559 27.1714 14.6876C27.2106 14.307 27.2499 13.9326 27.2891 13.5643C27.3284 13.1837 27.3611 12.8277 27.3872 12.4962C27.4134 12.1525 27.4265 11.8885 27.4265 11.7044C27.4265 11.6061 27.3153 11.5632 27.0929 11.5755C26.8836 11.5755 26.6481 11.6061 26.3865 11.6675C26.1379 11.7166 25.909 11.7842 25.6996 11.8701ZM27.505 8.66586C27.2695 8.51854 27.0209 8.44487 26.7593 8.44487C26.4715 8.44487 26.236 8.48784 26.0529 8.57378C25.8697 8.65972 25.7258 8.77021 25.6211 8.90525C25.5165 9.02802 25.4445 9.16921 25.4053 9.3288C25.366 9.47612 25.3464 9.61117 25.3464 9.73394C25.3464 9.83215 25.3595 9.9365 25.3857 10.047C25.4118 10.1575 25.4576 10.2618 25.523 10.3601C25.6015 10.446 25.7062 10.5258 25.837 10.5995C25.9678 10.6608 26.1379 10.6915 26.3472 10.6915C26.5042 10.6915 26.6743 10.6547 26.8574 10.581C27.0406 10.4951 27.2041 10.3846 27.348 10.2496C27.4919 10.1145 27.6096 9.96106 27.7012 9.78918C27.8059 9.61731 27.8582 9.43929 27.8582 9.25514C27.8582 9.00961 27.7405 8.81318 27.505 8.66586ZM35.7397 14.7613C35.4912 14.5157 35.2295 14.3377 34.9548 14.2272C35.3603 13.8835 35.6939 13.5582 35.9556 13.2512C36.2172 12.932 36.42 12.6435 36.5639 12.3857C36.7209 12.1156 36.819 11.8885 36.8583 11.7044C36.9106 11.5079 36.9171 11.3606 36.8779 11.2624C36.8256 11.1274 36.6489 11.066 36.3481 11.0782C36.2303 11.0782 36.0995 11.1028 35.9556 11.1519C35.8378 11.1887 35.7005 11.244 35.5435 11.3176C35.3996 11.379 35.2557 11.4588 35.1118 11.557C35.0856 11.9131 34.9875 12.2507 34.8174 12.5699C34.6474 12.8768 34.438 13.1653 34.1895 13.4354C33.9409 13.7055 33.6793 13.951 33.4045 14.172C33.1298 14.393 32.8682 14.5955 32.6196 14.7797C32.6327 14.4973 32.6392 14.2027 32.6392 13.8958C32.6523 13.5888 32.6719 13.2697 32.6981 12.9382C32.7243 12.3857 32.757 11.7719 32.7962 11.0967C32.8224 10.5197 32.8551 9.85671 32.8943 9.10782C32.9336 8.35894 32.9728 7.56095 33.0121 6.71385C33.0252 6.60336 32.927 6.54811 32.7177 6.54811C32.5215 6.54811 32.2991 6.5788 32.0505 6.64019C31.802 6.70157 31.573 6.78751 31.3637 6.898C31.1675 6.99621 31.0694 7.09443 31.0694 7.19264L31.1871 17.9471C31.2002 18.34 31.3048 18.5794 31.5011 18.6653C31.7104 18.7635 31.9459 18.7758 32.2075 18.7021C32.286 18.6899 32.3711 18.6653 32.4626 18.6285C32.528 18.6039 32.6065 18.5732 32.6981 18.5364C32.7897 18.4873 32.8813 18.432 32.9728 18.3707C32.8682 18.2233 32.7831 17.9348 32.7177 17.5051C32.6654 17.0755 32.6327 16.5291 32.6196 15.8662C32.8028 15.768 33.0121 15.6452 33.2476 15.4979C33.4961 15.3383 33.7643 15.1541 34.0521 14.9454C34.2222 15.0191 34.3596 15.1234 34.4642 15.2585C34.582 15.3935 34.6735 15.5409 34.7389 15.7005C34.8044 15.8601 34.8501 16.0258 34.8763 16.1977C34.9025 16.3695 34.9221 16.5353 34.9352 16.6949C34.9744 17.0755 35.0333 17.4438 35.1118 17.7998C35.1903 18.1558 35.308 18.4689 35.465 18.739C35.622 19.0091 35.8378 19.2116 36.1126 19.3467C36.3873 19.494 36.7405 19.5492 37.1722 19.5124C37.3554 19.5124 37.532 19.4878 37.7021 19.4387C37.846 19.4142 37.9964 19.3712 38.1534 19.3098C38.3235 19.2484 38.4674 19.1686 38.5851 19.0704C38.1403 18.9231 37.774 18.7512 37.4862 18.5548C37.2115 18.3461 36.9891 18.1128 36.819 17.855C36.6489 17.5849 36.5181 17.2842 36.4265 16.9527C36.335 16.6212 36.263 16.2468 36.2107 15.8294C36.1453 15.3506 35.9883 14.9945 35.7397 14.7613ZM45.0538 14.7613C44.8052 14.5157 44.5436 14.3377 44.2689 14.2272C44.6744 13.8835 45.008 13.5582 45.2697 13.2512C45.5313 12.932 45.7341 12.6435 45.878 12.3857C46.035 12.1156 46.1331 11.8885 46.1723 11.7044C46.2247 11.5079 46.2312 11.3606 46.192 11.2624C46.1396 11.1274 45.963 11.066 45.6621 11.0782C45.5444 11.0782 45.4136 11.1028 45.2697 11.1519C45.1519 11.1887 45.0146 11.244 44.8576 11.3176C44.7137 11.379 44.5698 11.4588 44.4259 11.557C44.3997 11.9131 44.3016 12.2507 44.1315 12.5699C43.9614 12.8768 43.7521 13.1653 43.5036 13.4354C43.255 13.7055 42.9934 13.951 42.7186 14.172C42.4439 14.393 42.1823 14.5955 41.9337 14.7797C41.9468 14.4973 41.9533 14.2027 41.9533 13.8958C41.9664 13.5888 41.986 13.2697 42.0122 12.9382C42.0383 12.3857 42.0711 11.7719 42.1103 11.0967C42.1365 10.5197 42.1692 9.85671 42.2084 9.10782C42.2477 8.35894 42.2869 7.56095 42.3262 6.71385C42.3392 6.60336 42.2411 6.54811 42.0318 6.54811C41.8356 6.54811 41.6132 6.5788 41.3646 6.64019C41.116 6.70157 40.8871 6.78751 40.6778 6.898C40.4816 6.99621 40.3834 7.09443 40.3834 7.19264L40.5012 17.9471C40.5143 18.34 40.6189 18.5794 40.8152 18.6653C41.0245 18.7635 41.26 18.7758 41.5216 18.7021C41.6001 18.6899 41.6851 18.6653 41.7767 18.6285C41.8073 18.617 41.8407 18.6042 41.8769 18.59C41.9183 18.5739 41.9634 18.556 42.0122 18.5364C42.1038 18.4873 42.1953 18.432 42.2869 18.3707C42.1823 18.2233 42.0972 17.9348 42.0318 17.5051C41.9795 17.0755 41.9468 16.5291 41.9337 15.8662C42.1168 15.768 42.3262 15.6452 42.5616 15.4979C42.8102 15.3383 43.0784 15.1541 43.3662 14.9454C43.5363 15.0191 43.6736 15.1234 43.7783 15.2585C43.896 15.3935 43.9876 15.5409 44.053 15.7005C44.1184 15.8601 44.1642 16.0258 44.1904 16.1977C44.2165 16.3695 44.2362 16.5353 44.2492 16.6949C44.2885 17.0755 44.3474 17.4438 44.4259 17.7998C44.5043 18.1558 44.6221 18.4689 44.7791 18.739C44.9361 19.0091 45.1519 19.2116 45.4266 19.3467C45.7014 19.494 46.0546 19.5492 46.4863 19.5124C46.6695 19.5124 46.8461 19.4878 47.0161 19.4387C47.16 19.4142 47.3105 19.3712 47.4675 19.3098C47.6376 19.2484 47.7815 19.1686 47.8992 19.0704C47.4544 18.9231 47.0881 18.7512 46.8003 18.5548C46.5256 18.3461 46.3032 18.1128 46.1331 17.855C45.963 17.5849 45.8322 17.2842 45.7406 16.9527C45.649 16.6212 45.5771 16.2468 45.5248 15.8294C45.4594 15.3506 45.3024 14.9945 45.0538 14.7613ZM50.0507 11.8701C49.8414 11.956 49.7367 12.0358 49.7367 12.1095C49.7498 12.3919 49.776 12.8154 49.8152 13.3801C49.8545 13.9326 49.8479 14.7183 49.7956 15.7373C49.7694 16.2529 49.7629 16.6949 49.776 17.0632C49.789 17.4192 49.8087 17.7138 49.8348 17.9471C49.861 18.1681 49.8872 18.34 49.9133 18.4627C49.9395 18.5855 49.9657 18.6714 49.9918 18.7205C50.0049 18.7697 50.0834 18.7942 50.2273 18.7942C50.3712 18.7942 50.5217 18.7758 50.6786 18.739C50.8356 18.7144 50.9795 18.6714 51.1104 18.6101C51.2412 18.5487 51.3066 18.4873 51.3066 18.4259C51.2935 18.0822 51.2935 17.7445 51.3066 17.4131C51.3197 17.0816 51.3393 16.7808 51.3655 16.5107C51.3916 16.1915 51.4178 15.8969 51.444 15.6268C51.457 15.369 51.4832 15.0559 51.5224 14.6876C51.5617 14.307 51.6009 13.9326 51.6402 13.5643C51.6794 13.1837 51.7121 12.8277 51.7383 12.4962C51.7645 12.1525 51.7775 11.8885 51.7775 11.7044C51.7775 11.6061 51.6664 11.5632 51.444 11.5755C51.2346 11.5755 50.9992 11.6061 50.7375 11.6675C50.4889 11.7166 50.26 11.7842 50.0507 11.8701ZM51.856 8.66586C51.6206 8.51854 51.372 8.44487 51.1104 8.44487C50.8225 8.44487 50.5871 8.48784 50.4039 8.57378C50.2208 8.65972 50.0769 8.77021 49.9722 8.90525C49.8675 9.02802 49.7956 9.16921 49.7563 9.3288C49.7171 9.47612 49.6975 9.61117 49.6975 9.73394C49.6975 9.83215 49.7106 9.9365 49.7367 10.047C49.7629 10.1575 49.8087 10.2618 49.8741 10.3601C49.9526 10.446 50.0572 10.5258 50.1881 10.5995C50.3189 10.6608 50.4889 10.6915 50.6983 10.6915C50.8553 10.6915 51.0253 10.6547 51.2085 10.581C51.3916 10.4951 51.5552 10.3846 51.6991 10.2496C51.843 10.1145 51.9607 9.96106 52.0523 9.78918C52.1569 9.61731 52.2093 9.43929 52.2093 9.25514C52.2093 9.00961 52.0915 8.81318 51.856 8.66586ZM56.5833 15.8935C56.8319 15.8935 57.0347 15.9611 57.1916 16.0961C57.3617 16.2311 57.4467 16.4214 57.4467 16.667C57.4467 16.8143 57.414 16.9677 57.3486 17.1273C57.2963 17.2869 57.1982 17.4404 57.0543 17.5877C56.9235 17.7228 56.7468 17.8333 56.5244 17.9192C56.3151 18.0174 56.06 18.0665 55.7591 18.0665C55.4975 18.0665 55.2947 17.9929 55.1508 17.8455C55.02 17.6982 54.9546 17.5141 54.9546 17.2931C54.9546 16.9248 55.1116 16.5994 55.4255 16.3171C55.7395 16.0347 56.1254 15.8935 56.5833 15.8935ZM17.1583 51.4315C16.8609 51.4207 16.5685 51.4094 16.281 51.3977C14.5022 51.325 12.9775 51.2705 11.707 51.2341C10.4364 51.1614 9.54702 51.1251 9.03879 51.1251C8.53057 51.1251 8.08587 51.1432 7.70471 51.1796C7.28117 51.1796 6.92119 51.2341 6.62473 51.3432C6.32825 51.4522 6.13766 51.634 6.05297 51.8884C5.92591 52.1428 5.88356 52.5245 5.92591 53.0334C5.96827 53.4332 6.05297 53.833 6.18002 54.2329C6.39178 54.9962 6.79412 55.7777 7.38706 56.5773C7.89528 56.4319 8.72116 56.3229 9.86465 56.2502C11.0082 56.1775 12.3211 56.1411 13.8034 56.1411C14.8116 56.1157 15.8716 56.1081 16.9835 56.1183C16.9437 57.9087 16.9038 59.7957 16.864 61.7791C16.2711 61.8518 15.657 61.9245 15.0217 61.9972C14.4711 62.0699 13.8782 62.1608 13.2429 62.2699C12.6076 62.3425 12.0147 62.4152 11.4641 62.4879C11.4641 63.1422 11.57 63.7601 11.7817 64.3417C12.0359 64.9233 12.3747 65.4322 12.7982 65.8683C13.2217 66.3045 13.6876 66.6317 14.1958 66.8497C14.7464 67.0315 15.2758 67.0497 15.784 66.9043C15.9534 66.8679 16.1017 66.8316 16.2287 66.7952C16.3981 66.7589 16.5887 66.7225 16.8005 66.6862C16.7581 68.7217 16.7158 70.6481 16.6734 72.4656C16.6734 74.2466 16.6522 75.8641 16.6099 77.3181C16.6099 78.772 16.5887 80.0079 16.5464 81.0256V83.261C16.5464 83.5882 16.7581 83.7517 17.1816 83.7517C18.071 83.7517 18.8546 83.6427 19.5322 83.4246C20.2098 83.2429 20.7816 83.0066 21.2474 82.7158C21.7557 82.4614 22.158 82.1888 22.4545 81.898C22.7933 81.6072 23.0474 81.3709 23.2168 81.1892C23.3862 81.0438 23.4498 80.7893 23.4074 80.4259C23.3227 79.9897 23.238 79.3172 23.1533 78.4085C23.0686 77.4635 22.9839 76.3549 22.8992 75.0826C22.8568 73.7741 22.8145 72.3384 22.7721 70.7754C22.7298 69.176 22.7298 67.4858 22.7721 65.7048C24.8897 65.4503 27.0497 65.2686 29.252 65.1596C31.4967 65.0505 33.5719 65.0505 35.4778 65.1596C35.8166 65.1959 36.1131 65.2322 36.3671 65.2686C36.6213 65.2686 36.8966 65.2868 37.193 65.3231C37.066 68.0492 36.9389 70.5209 36.8119 72.7382C36.6848 74.9554 36.5789 76.8455 36.4942 78.4085C36.4519 78.663 36.4095 78.9901 36.3671 79.3899V81.4618C36.4095 81.7162 36.473 81.9525 36.5577 82.1706C36.6424 82.425 36.7907 82.6249 37.0025 82.7703C37.2566 82.9521 37.5742 83.0248 37.9554 82.9884C38.633 82.9157 39.3107 82.8067 39.9883 82.6613C40.5812 82.5159 41.1953 82.3342 41.8306 82.1161C42.4659 81.898 43.0588 81.589 43.6094 81.1892C43.3129 79.2264 43.1223 77.2817 43.0376 75.3553C42.9529 73.4288 42.9106 71.6841 42.9106 70.1211C42.9106 68.3037 42.9529 66.559 43.0376 64.8869C42.9292 61.7854 42.8516 59.0146 42.8049 56.5747L42.8993 56.5773C44.2122 56.6137 45.3558 56.6682 46.3299 56.7409C47.304 56.8136 48.278 56.9045 49.2521 57.0135C50.0992 57.0862 50.9674 57.1771 51.8568 57.2861L54.0803 57.5587C54.1227 56.4319 54.0591 55.4869 53.8897 54.7236C53.7203 53.9239 53.4662 53.306 53.1274 52.8698C52.7886 52.3973 52.3862 52.052 51.9204 51.8339C51.4968 51.6158 51.031 51.5067 50.5227 51.5067H48.6169C47.6851 51.4704 46.5628 51.4522 45.2499 51.4522C44.4698 51.4522 43.6477 51.4582 42.7835 51.4703V48.5302C42.8259 46.6764 42.847 45.2406 42.847 44.2229L42.8504 44.1408L42.853 44.0735C44.3384 43.4069 45.688 42.8132 46.9016 42.2924C48.2569 41.6745 49.1674 41.2383 49.6333 40.9839C50.9886 40.3296 52.1533 39.5845 53.1274 38.7485C54.1438 37.8761 54.6732 36.9492 54.7156 35.9678C54.7156 35.4953 54.6732 34.9682 54.5885 34.3867C54.5038 33.9141 54.3767 33.3871 54.2074 32.8055C54.038 32.1876 53.7838 31.5697 53.445 30.9517L52.5556 32.0967C52.3015 32.3875 51.9839 32.6965 51.6027 33.0236C51.2215 33.3507 50.7345 33.7324 50.1415 34.1686C49.5486 34.6047 48.7228 35.1681 47.664 35.8588C46.9016 36.404 45.7369 37.0946 44.1699 37.9306C42.5605 38.7666 40.8241 39.6572 38.9606 40.6022L33.2431 43.3284C31.2948 44.2007 29.6219 44.964 28.2243 45.6183C26.4879 44.3461 24.7091 43.1103 22.888 41.9108C21.0244 40.7113 19.2457 39.6208 17.5516 38.6394C15.8575 37.658 14.3328 36.822 12.9775 36.1314C11.5799 35.4044 10.4788 34.9137 9.67408 34.6593C8.74234 34.4048 7.87411 34.3321 7.06942 34.4412C6.26472 34.5139 5.86238 34.9501 5.86238 35.7497C5.86238 36.1132 5.94709 36.513 6.1165 36.9492C6.24355 37.349 6.43414 37.8216 6.68824 38.3668C6.94236 38.912 7.30235 39.4936 7.76822 40.1115C8.69998 40.1115 10.3517 40.6204 12.7234 41.6382C14.2542 42.307 15.9495 43.172 17.8094 44.2332C17.645 44.3933 17.5628 44.5535 17.5628 44.7136C17.5205 45.0771 17.4569 45.7859 17.3722 46.84C17.3299 47.8577 17.2663 49.1299 17.1816 50.6566C17.1745 50.9086 17.1667 51.167 17.1583 51.4315Z" fill="#010101"/>
</svg>
