<svg width="71" height="88" viewBox="0 0 71 88" fill="none" xmlns="http://www.w3.org/2000/svg">
<g opacity="0.9">
<path d="M1.31233 8.36954C1.15887 8.41896 0.998771 8.41346 0.832044 8.35303C0.678072 8.28036 0.536753 8.171 0.408088 8.02496C0.279424 7.87893 0.176269 7.70838 0.0986248 7.51331C0.0337862 7.3182 0.000911284 7.11075 0 6.89098C0.166373 6.86593 0.345552 6.84083 0.537536 6.81569C0.72947 6.77834 0.908624 6.74714 1.075 6.72209C1.26698 6.69695 1.45256 6.67183 1.63174 6.64673C1.64161 5.93852 1.65163 5.26693 1.66181 4.63197C1.68473 3.98476 1.70156 3.41083 1.71229 2.91018C1.73578 2.39727 1.75321 1.96986 1.7646 1.62794C1.78875 1.27376 1.80697 1.03559 1.81927 0.913447C1.81901 0.852398 1.85077 0.791228 1.91455 0.729938C2.01669 0.656293 2.16353 0.551955 2.35506 0.416924C2.55939 0.281844 2.78939 0.158877 3.04505 0.048024C3.26239 -0.038265 3.40338 -0.00827159 3.46801 0.138004C3.54541 0.272022 3.58491 0.534387 3.58653 0.9251C3.5632 1.47464 3.54065 2.21342 3.51889 3.14146C3.49712 4.0695 3.47604 5.16237 3.45564 6.42008C3.66043 6.39489 3.85885 6.37582 4.05088 6.36289C4.24292 6.34995 4.44776 6.33697 4.66541 6.32394C5.25437 6.2973 5.82409 6.26463 6.37459 6.22592C6.93789 6.18717 7.43091 6.18531 7.85365 6.22035C7.91044 4.47411 7.92423 3.16759 7.89502 2.3008C7.86577 1.42179 7.85081 0.902921 7.85015 0.744194C7.84985 0.670935 7.93273 0.585153 8.0988 0.486848C8.26487 0.388542 8.44379 0.302398 8.63558 0.228415C8.84011 0.142174 9.02557 0.0865303 9.19194 0.0614833C9.35826 0.0242264 9.44793 0.0299934 9.46094 0.0787842C9.4741 0.164204 9.47498 0.377875 9.4636 0.719797C9.46501 1.06167 9.46061 1.54398 9.45039 2.16673C9.45292 2.77722 9.45608 3.54033 9.45988 4.45606C9.47648 5.37174 9.50652 6.44 9.55 7.66084C9.52672 8.22258 9.51634 8.8087 9.51888 9.41919C9.52105 9.94421 9.53629 10.5302 9.56458 11.1772C9.59288 11.8243 9.65321 12.4773 9.74559 13.1363C9.57967 13.2712 9.40082 13.3757 9.20904 13.4496C9.01725 13.5236 8.83183 13.5854 8.65275 13.6349C8.44806 13.6845 8.24332 13.7219 8.03853 13.7471C7.92333 13.7597 7.82718 13.7357 7.7501 13.6749C7.68587 13.6263 7.64077 13.5593 7.6148 13.474C7.58889 13.4008 7.56935 13.3215 7.55619 13.2361C7.55583 13.1506 7.5555 13.0713 7.5552 12.998C7.55454 12.8393 7.55391 12.6867 7.5533 12.5401C7.56555 12.4058 7.5779 12.2958 7.59035 12.2103C7.61379 11.6852 7.64317 11.0502 7.6785 10.3052C7.71383 9.5603 7.7488 8.72989 7.78342 7.81401C7.69373 7.80214 7.61047 7.79635 7.53363 7.79664C7.45675 7.78472 7.36706 7.77285 7.26456 7.76102C6.68815 7.72657 6.06067 7.72893 5.38212 7.76812C4.71638 7.80726 4.06354 7.87077 3.42361 7.95865C3.41328 8.55698 3.41564 9.12473 3.43067 9.66192C3.44565 10.1869 3.46046 10.6691 3.47509 11.1086C3.50247 11.5359 3.52962 11.9082 3.55655 12.2255C3.58343 12.5307 3.60998 12.7565 3.6362 12.9029C3.64951 13.0249 3.63065 13.1105 3.57963 13.1595C3.52866 13.2208 3.45216 13.3004 3.35012 13.3985C3.26088 13.4965 3.13961 13.5885 2.98629 13.6746C2.84584 13.7728 2.67329 13.8528 2.46865 13.9146C2.26406 13.9886 2.02731 14.0262 1.75839 14.0272C1.63033 14.0277 1.56607 13.973 1.56562 13.8631C1.56496 13.7043 1.56392 13.454 1.56251 13.1122C1.57389 12.7702 1.57858 12.3551 1.57655 11.8667C1.58733 11.3783 1.59148 10.8349 1.589 10.2366C1.59927 9.62608 1.6094 8.97892 1.61937 8.29512C1.55539 8.30757 1.49781 8.32 1.44664 8.3324C1.40828 8.34476 1.36351 8.35714 1.31233 8.36954Z" fill="black"/>
<path d="M16.0749 12.4897C15.1785 12.4931 14.4858 12.2088 13.9968 11.6367C13.5078 11.0647 13.2614 10.3147 13.2576 9.38678C13.2549 8.73966 13.3484 8.13492 13.5382 7.57254C13.7407 6.99791 14.0075 6.5024 14.3388 6.08601C14.67 5.66963 15.0528 5.34462 15.4873 5.11099C15.9345 4.86511 16.4014 4.74125 16.888 4.73941C17.3618 4.73763 17.7658 4.90094 18.1002 5.22935C18.4344 5.54555 18.6028 6.00279 18.6053 6.60107C18.6069 6.99178 18.5189 7.38283 18.3412 7.77422C18.1635 8.1534 17.928 8.49616 17.6348 8.80252C17.3542 9.09661 17.0415 9.33589 16.6965 9.52034C16.3515 9.70479 16.0189 9.79761 15.6988 9.79882C15.4939 9.79959 15.3209 9.77583 15.1799 9.72752C15.0388 9.67921 14.9104 9.60643 14.7948 9.50919C14.8361 10.205 14.9982 10.6928 15.2811 10.9726C15.5639 11.2401 15.9294 11.373 16.3776 11.3713C16.685 11.3702 16.9536 11.3081 17.1836 11.1852C17.4264 11.0621 17.6307 10.921 17.7966 10.7616C17.9624 10.6023 18.0962 10.443 18.198 10.2839C18.2997 10.1126 18.3696 9.98411 18.4077 9.8985C18.4458 9.8251 18.5096 9.78823 18.5993 9.78789C18.7017 9.7875 18.7533 9.86057 18.7539 10.0071C18.7544 10.1414 18.7041 10.3492 18.6028 10.6304C18.5143 10.8993 18.3617 11.1746 18.1452 11.4563C17.9286 11.7257 17.6479 11.9648 17.303 12.1737C16.9709 12.3825 16.5615 12.4879 16.0749 12.4897ZM16.9297 5.5268C16.8528 5.52709 16.7059 5.60701 16.4888 5.76656C16.2846 5.91384 16.0614 6.13447 15.8193 6.42842C15.59 6.72232 15.3738 7.07722 15.1706 7.49313C14.9802 7.89678 14.8604 8.3551 14.8113 8.8681C15.579 8.69427 16.1861 8.42336 16.6328 8.05538C17.0795 7.6874 17.3014 7.14932 17.2984 6.44116C17.2969 6.08707 17.2511 5.84915 17.161 5.72739C17.0708 5.59342 16.9937 5.52656 16.9297 5.5268Z" fill="black"/>
<path d="M22.1294 5.78192C22.1291 5.70866 22.2312 5.62891 22.4358 5.54267C22.6403 5.45643 22.8641 5.38843 23.1072 5.33868C23.3631 5.27666 23.5935 5.24527 23.7983 5.2445C24.016 5.23147 24.125 5.27379 24.1254 5.37147C24.1262 5.55462 24.1145 5.81717 24.0903 6.15915C24.066 6.48891 24.0355 6.84311 23.9986 7.22176C23.9617 7.5882 23.9249 7.96074 23.888 8.33939C23.8511 8.70582 23.8268 9.01727 23.8151 9.27372C23.7906 9.54243 23.7662 9.83557 23.7419 10.1531C23.7174 10.4218 23.6994 10.721 23.688 11.0508C23.6765 11.3805 23.6779 11.7162 23.6921 12.0581C23.6924 12.1191 23.6286 12.1804 23.5008 12.2419C23.373 12.3035 23.2323 12.3467 23.0788 12.3717C22.9252 12.4089 22.778 12.4278 22.6372 12.4283C22.4963 12.4289 22.4194 12.4047 22.4064 12.3559C22.3806 12.3072 22.3546 12.2218 22.3285 12.0998C22.3024 11.9778 22.276 11.807 22.2495 11.5873C22.2229 11.3554 22.2025 11.0625 22.1882 10.7084C22.1739 10.3422 22.1785 9.9026 22.202 9.38969C22.249 8.37609 22.2522 7.59464 22.2115 7.04534C22.1707 6.48384 22.1434 6.0627 22.1294 5.78192ZM23.4589 2.13224C23.715 2.13127 23.9586 2.20361 24.1897 2.34926C24.4208 2.49491 24.5369 2.68983 24.5379 2.93403C24.5387 3.11717 24.4882 3.29441 24.3864 3.46573C24.2975 3.63701 24.1829 3.79006 24.0426 3.9249C23.9023 4.05974 23.7427 4.17023 23.5637 4.25638C23.3848 4.33031 23.2184 4.36757 23.0648 4.36815C22.8599 4.36892 22.6933 4.33902 22.565 4.27846C22.4366 4.20568 22.3338 4.1267 22.2566 4.04152C22.1922 3.94409 22.147 3.84047 22.1209 3.73068C22.0948 3.62089 22.0816 3.51716 22.0812 3.41948C22.0807 3.29738 22.0993 3.163 22.1371 3.01634C22.1749 2.85747 22.2448 2.71679 22.3467 2.5943C22.4486 2.45961 22.589 2.34919 22.7679 2.26305C22.9468 2.1769 23.1772 2.1333 23.4589 2.13224ZM22.9857 3.83731C23.0626 3.83702 23.1457 3.81229 23.2351 3.76311C23.3373 3.70168 23.4267 3.63418 23.5032 3.56064C23.5926 3.48704 23.6627 3.40741 23.7135 3.32175C23.7772 3.23604 23.8089 3.16266 23.8087 3.10161C23.8083 3.00393 23.7568 2.95529 23.6544 2.95567C23.5904 2.95591 23.5072 2.98065 23.405 3.02987C23.3155 3.07905 23.2262 3.14044 23.1368 3.21403C23.0474 3.27542 22.9709 3.34897 22.9072 3.43468C22.8563 3.50813 22.831 3.58149 22.8313 3.65474C22.8318 3.77684 22.8833 3.8377 22.9857 3.83731Z" fill="black"/>
<path d="M31.505 7.8528C31.7744 7.96167 32.0312 8.13775 32.2756 8.38103C32.5198 8.6121 32.675 8.9656 32.741 9.44154C32.7939 9.85648 32.8659 10.2286 32.9569 10.5579C33.0479 10.8873 33.1772 11.1859 33.3448 11.4539C33.5123 11.7097 33.731 11.9409 34.0008 12.1474C34.2833 12.3417 34.6426 12.5113 35.0786 12.6562C34.9637 12.7543 34.8232 12.8342 34.657 12.8958C34.5035 12.9575 34.3565 13.0008 34.2157 13.0257C34.0494 13.0752 33.8766 13.1002 33.6974 13.1009C33.2749 13.1391 32.929 13.0855 32.6594 12.94C32.3899 12.8067 32.1778 12.606 32.023 12.338C31.8683 12.07 31.7517 11.7591 31.6734 11.4053C31.5951 11.0515 31.536 10.6854 31.496 10.307C31.4825 10.1484 31.4626 9.9836 31.4363 9.81276C31.41 9.64192 31.3645 9.47726 31.2998 9.31877C31.2351 9.16028 31.1449 9.0141 31.029 8.88023C30.926 8.74631 30.7912 8.64303 30.6244 8.5704C30.3435 8.77903 30.0817 8.96317 29.8391 9.12281C29.6092 9.2702 29.4048 9.39307 29.2259 9.49142C29.2415 10.1507 29.2757 10.6939 29.3287 11.1211C29.3945 11.5482 29.479 11.8348 29.582 11.9809C29.4926 12.0423 29.4032 12.0976 29.3138 12.1468C29.2243 12.1837 29.1476 12.2145 29.0837 12.2392C28.9942 12.2762 28.911 12.3009 28.8343 12.3134C28.5784 12.3876 28.3479 12.3763 28.1426 12.2794C27.9502 12.1946 27.8467 11.9569 27.8323 11.5663L27.6727 0.870938C27.6723 0.77326 27.7679 0.675219 27.9596 0.576817C28.164 0.466157 28.3878 0.379844 28.6308 0.317878C28.8739 0.255912 29.0915 0.224567 29.2836 0.223843C29.4885 0.22307 29.5847 0.277652 29.5724 0.387588C29.5374 1.23021 29.5023 2.02399 29.467 2.76893C29.4317 3.51387 29.4024 4.17332 29.3792 4.74727C29.3435 5.41896 29.314 6.02957 29.2907 6.5791C29.2665 6.90886 29.2486 7.22639 29.237 7.53168C29.2383 7.83692 29.2331 8.12998 29.2215 8.41086C29.464 8.22679 29.7193 8.02437 29.9873 7.80358C30.2553 7.58279 30.5104 7.33763 30.7526 7.06809C30.9948 6.79856 31.1985 6.51086 31.3637 6.20499C31.5289 5.88691 31.6235 5.55078 31.6477 5.1966C31.7881 5.09839 31.9287 5.01849 32.0693 4.95691C32.2226 4.88307 32.3569 4.82762 32.472 4.79056C32.6126 4.74119 32.7406 4.71629 32.8558 4.71585C33.1503 4.70253 33.3234 4.76293 33.3752 4.89704C33.414 4.99458 33.4082 5.14112 33.3578 5.33667C33.3202 5.51996 33.2251 5.7462 33.0725 6.0154C32.9327 6.27233 32.7354 6.56001 32.4806 6.87843C32.2258 7.18464 31.9006 7.50943 31.505 7.8528Z" fill="black"/>
<path d="M40.6222 7.81843C40.8915 7.92731 41.1484 8.10338 41.3927 8.34666C41.637 8.57773 41.7921 8.93124 41.8581 9.40718C41.9111 9.82211 41.983 10.1942 42.074 10.5236C42.1651 10.8529 42.2943 11.1516 42.4619 11.4195C42.6295 11.6753 42.8481 11.9065 43.1179 12.113C43.4004 12.3073 43.7597 12.4769 44.1957 12.6218C44.0809 12.7199 43.9403 12.7998 43.7741 12.8615C43.6207 12.9231 43.4736 12.9664 43.3329 12.9913C43.1666 13.0408 42.9938 13.0659 42.8145 13.0666C42.3921 13.1048 42.0461 13.0511 41.7766 12.9056C41.5071 12.7723 41.295 12.5717 41.1402 12.3036C40.9854 12.0356 40.8689 11.7247 40.7906 11.3709C40.7123 11.0171 40.6531 10.651 40.6131 10.2727C40.5997 10.114 40.5798 9.94923 40.5535 9.77839C40.5271 9.60755 40.4816 9.44289 40.4169 9.2844C40.3523 9.12592 40.262 8.97974 40.1462 8.84586C40.0432 8.71194 39.9083 8.60867 39.7415 8.53604C39.4607 8.74466 39.1989 8.9288 38.9563 9.08844C38.7264 9.23583 38.522 9.3587 38.3431 9.45705C38.3586 10.1163 38.3929 10.6595 38.4459 11.0867C38.5117 11.5138 38.5961 11.8004 38.6992 11.9465C38.6098 12.0079 38.5204 12.0632 38.4309 12.1124C38.3415 12.1494 38.2648 12.1802 38.2008 12.2048C38.1113 12.2418 38.0282 12.2665 37.9514 12.279C37.6956 12.3533 37.465 12.3419 37.2598 12.245C37.0673 12.1603 36.9639 11.9226 36.9495 11.5319L36.7899 0.836571C36.7895 0.738893 36.8851 0.640852 37.0768 0.54245C37.2812 0.43179 37.505 0.345477 37.748 0.283511C37.9911 0.221545 38.2086 0.1902 38.4007 0.189476C38.6056 0.188703 38.7019 0.243285 38.6895 0.353222C38.6546 1.19584 38.6195 1.98962 38.5842 2.73456C38.5488 3.4795 38.5195 4.13895 38.4963 4.71291C38.4607 5.38459 38.4312 5.9952 38.4079 6.54473C38.3836 6.8745 38.3657 7.19202 38.3542 7.49731C38.3554 7.80256 38.3503 8.09562 38.3386 8.37649C38.5812 8.19243 38.8364 7.99 39.1045 7.76921C39.3725 7.54842 39.6276 7.30326 39.8698 7.03373C40.112 6.76419 40.3157 6.47649 40.4809 6.17062C40.646 5.85254 40.7407 5.51641 40.7648 5.16223C40.9053 5.06402 41.0458 4.98413 41.1864 4.92255C41.3398 4.84871 41.474 4.79326 41.5891 4.75619C41.7298 4.70682 41.8577 4.68192 41.973 4.68149C42.2675 4.66817 42.4406 4.72856 42.4924 4.86268C42.5312 4.96021 42.5254 5.10675 42.475 5.3023C42.4373 5.48559 42.3422 5.71184 42.1897 5.98103C42.0499 6.23797 41.8526 6.52564 41.5978 6.84406C41.3429 7.15027 41.0177 7.47506 40.6222 7.81843Z" fill="black"/>
<path d="M45.9657 5.69207C45.9654 5.61881 46.0675 5.53906 46.2721 5.45282C46.4766 5.36658 46.7004 5.29858 46.9435 5.24883C47.1994 5.18681 47.4298 5.15542 47.6346 5.15465C47.8523 5.14162 47.9613 5.18394 47.9617 5.28162C47.9625 5.46477 47.9508 5.72732 47.9266 6.06929C47.9023 6.39906 47.8718 6.75326 47.8349 7.13191C47.798 7.49835 47.7612 7.87089 47.7243 8.24954C47.6874 8.61597 47.6631 8.92742 47.6514 9.18387C47.6269 9.45258 47.6025 9.74572 47.5782 10.0633C47.5537 10.332 47.5357 10.6312 47.5243 10.9609C47.5128 11.2906 47.5142 11.6264 47.5284 11.9682C47.5287 12.0293 47.4649 12.0905 47.3371 12.1521C47.2093 12.2136 47.0686 12.2569 46.9151 12.2819C46.7615 12.3191 46.6143 12.338 46.4735 12.3385C46.3326 12.339 46.2557 12.3149 46.2427 12.2661C46.2169 12.2174 46.1909 12.132 46.1648 12.01C46.1387 11.888 46.1123 11.7171 46.0858 11.4975C46.0592 11.2656 46.0388 10.9726 46.0246 10.6186C46.0102 10.2523 46.0148 9.81275 46.0383 9.29984C46.0853 8.28624 46.0885 7.50479 46.0478 6.95549C46.007 6.39399 45.9797 5.97285 45.9657 5.69207ZM47.2952 2.04239C47.5513 2.04142 47.7949 2.11376 48.026 2.25941C48.2571 2.40506 48.3732 2.59998 48.3742 2.84418C48.375 3.02732 48.3245 3.20456 48.2228 3.37588C48.1338 3.54716 48.0192 3.70021 47.8789 3.83505C47.7386 3.96989 47.579 4.08038 47.4 4.16653C47.2211 4.24046 47.0547 4.27772 46.9011 4.2783C46.6962 4.27907 46.5296 4.24917 46.4013 4.18861C46.2729 4.11583 46.1701 4.03685 46.093 3.95167C46.0285 3.85424 45.9833 3.75062 45.9572 3.64083C45.9311 3.53104 45.9179 3.4273 45.9175 3.32963C45.917 3.20753 45.9356 3.07315 45.9734 2.92649C46.0112 2.76762 46.0811 2.62694 46.183 2.50445C46.2849 2.36976 46.4253 2.25934 46.6042 2.1732C46.7831 2.08705 47.0135 2.04345 47.2952 2.04239ZM46.822 3.74746C46.8989 3.74717 46.982 3.72244 47.0714 3.67326C47.1736 3.61183 47.263 3.54433 47.3395 3.47079C47.4289 3.39719 47.499 3.31756 47.5498 3.2319C47.6135 3.14619 47.6452 3.07281 47.645 3.01176C47.6446 2.91408 47.5931 2.86544 47.4907 2.86582C47.4267 2.86606 47.3435 2.8908 47.2413 2.94002C47.1519 2.9892 47.0625 3.05059 46.9731 3.12418C46.8837 3.18557 46.8072 3.25912 46.7435 3.34483C46.6926 3.41828 46.6673 3.49163 46.6676 3.56489C46.6681 3.68699 46.7196 3.74785 46.822 3.74746Z" fill="black"/>
<path d="M66.1041 8.34754C66.3735 8.45641 66.6303 8.63249 66.8746 8.87577C67.1189 9.10683 67.274 9.46034 67.34 9.93628C67.393 10.3512 67.465 10.7233 67.556 11.0527C67.647 11.382 67.7763 11.6807 67.9439 11.9486C68.1114 12.2044 68.3301 12.4356 68.5998 12.6421C68.8824 12.8364 69.2416 13.006 69.6777 13.1509C69.5628 13.249 69.4223 13.3289 69.2561 13.3906C69.1026 13.4522 68.9555 13.4955 68.8148 13.5204C68.6485 13.5699 68.4757 13.595 68.2965 13.5957C67.874 13.6339 67.528 13.5802 67.2585 13.4347C66.989 13.3014 66.7769 13.1008 66.6221 12.8327C66.4673 12.5647 66.3508 12.2538 66.2725 11.9C66.1942 11.5462 66.135 11.1801 66.0951 10.8018C66.0816 10.6431 66.0617 10.4783 66.0354 10.3075C66.0091 10.1367 65.9636 9.97199 65.8989 9.81351C65.8342 9.65502 65.7439 9.50884 65.6281 9.37497C65.5251 9.24105 65.3902 9.13777 65.2235 9.06514C64.9426 9.27377 64.6808 9.4579 64.4382 9.61755C64.2083 9.76493 64.0039 9.8878 63.825 9.98616C63.8406 10.6454 63.8748 11.1887 63.9278 11.6158C63.9936 12.0429 64.0781 12.3295 64.1811 12.4756C64.0917 12.537 64.0023 12.5923 63.9129 12.6415C63.8234 12.6785 63.7467 12.7093 63.6828 12.7339C63.5933 12.7709 63.5101 12.7956 63.4333 12.8081C63.1775 12.8824 62.947 12.871 62.7417 12.7741C62.5492 12.6894 62.4458 12.4517 62.4314 12.061L62.2718 1.36567C62.2714 1.268 62.367 1.16996 62.5587 1.07155C62.7631 0.960894 62.9869 0.87458 63.2299 0.812614C63.473 0.750648 63.6906 0.719303 63.8826 0.718579C64.0875 0.717807 64.1838 0.772389 64.1715 0.882325C64.1365 1.72494 64.1014 2.51872 64.0661 3.26366C64.0307 4.00861 64.0015 4.66805 63.9782 5.24201C63.9426 5.91369 63.9131 6.5243 63.8898 7.07384C63.8655 7.4036 63.8477 7.72112 63.8361 8.02642C63.8374 8.33166 63.8322 8.62472 63.8205 8.90559C64.0631 8.72153 64.3184 8.5191 64.5864 8.29831C64.8544 8.07752 65.1095 7.83236 65.3517 7.56283C65.5939 7.2933 65.7976 7.0056 65.9628 6.69973C66.128 6.38164 66.2226 6.04551 66.2467 5.69133C66.3872 5.59312 66.5277 5.51323 66.6684 5.45165C66.8217 5.37781 66.9559 5.32236 67.071 5.2853C67.2117 5.23593 67.3397 5.21102 67.4549 5.21059C67.7494 5.19727 67.9225 5.25767 67.9743 5.39178C68.0131 5.48931 68.0073 5.63586 67.9569 5.83141C67.9193 6.0147 67.8242 6.24094 67.6716 6.51013C67.5318 6.76707 67.3345 7.05475 67.0797 7.37317C66.8249 7.67938 66.4996 8.00417 66.1041 8.34754Z" fill="black"/>
<path d="M71 40.951C70.859 40.9271 70.6668 40.9034 70.4234 40.8799C70.1928 40.8564 69.9559 40.839 69.7125 40.8277C69.4307 40.8165 69.1298 40.8116 68.8096 40.8128C68.4894 40.7895 68.086 40.7911 67.5995 40.8173C67.1257 40.8313 66.6263 40.8393 66.1013 40.8413C66.0898 41.1588 66.0655 41.4824 66.0285 41.8122C66.0042 42.142 65.98 42.4657 65.9557 42.7832C65.8941 43.3695 65.8389 43.968 65.7902 44.5787C65.7543 45.1893 65.7375 45.7694 65.7398 46.3188C65.7421 46.8683 65.7762 47.3687 65.8421 47.8203C65.9207 48.2595 66.0566 48.607 66.2498 48.8627C66.0966 48.9731 65.9305 49.0592 65.7514 49.121C65.5724 49.1705 65.4124 49.2077 65.2717 49.2327C65.1054 49.2699 64.939 49.2889 64.7725 49.2895C64.6188 49.2901 64.4906 49.2417 64.3877 49.1444C64.2849 49.0471 64.2265 48.8764 64.2127 48.6323C64.1854 48.2172 64.1772 47.8021 64.1883 47.3869C64.2122 46.9595 64.2359 46.5137 64.2596 46.0497C64.2961 45.5856 64.3325 45.0909 64.3687 44.5657C64.4049 44.0284 64.4409 43.4422 64.4767 42.8071C64.5124 42.1476 64.5289 41.5065 64.5263 40.8838C64.0398 40.8979 63.63 40.9055 63.2971 40.9068C62.9641 40.9081 62.7784 40.9026 62.7399 40.8906C62.7014 40.8663 62.6564 40.8115 62.6048 40.7263C62.5533 40.6532 62.4888 40.5435 62.4113 40.3973C62.3211 40.2511 62.2114 40.044 62.0822 39.7759C62.3255 39.7749 62.5944 39.7739 62.889 39.7728C63.1707 39.7717 63.4332 39.7647 63.6764 39.7515C63.9581 39.7383 64.2398 39.725 64.5215 39.7117C64.5079 39.5164 64.5006 39.3089 64.4997 39.0891C64.4862 38.9182 64.479 38.729 64.4781 38.5214C64.4772 38.3016 64.47 38.1002 64.4564 37.9171C64.4561 37.8438 64.5454 37.758 64.7243 37.6597C64.9159 37.5491 65.1204 37.4506 65.3377 37.3643C65.5551 37.278 65.7533 37.2223 65.9325 37.1972C66.1245 37.1721 66.2207 37.2145 66.2212 37.3244C66.2216 37.4342 66.2163 37.7029 66.2053 38.1303C66.207 38.5454 66.1963 39.0522 66.1732 39.6505C66.3012 39.6501 66.3973 39.6436 66.4612 39.6311C67.1398 39.6042 67.684 39.5777 68.0937 39.5517C68.5161 39.5135 68.8618 39.5061 69.1308 39.5295C69.3999 39.5529 69.637 39.6131 69.8423 39.71C70.0476 39.8069 70.2788 39.9647 70.5358 40.1835C70.6257 40.2565 70.7029 40.3355 70.7673 40.4208C70.8316 40.4938 70.8832 40.5791 70.922 40.6766C70.9736 40.7619 70.9996 40.8533 71 40.951Z" fill="black"/>
<path d="M67.8388 23.6682C67.8648 23.7536 67.9035 23.8328 67.955 23.9059C67.9937 23.9668 68.0452 24.0277 68.1095 24.0885C68.1865 24.137 68.2763 24.1672 68.3788 24.179C68.2898 24.3503 68.2007 24.4666 68.1113 24.528C68.0602 24.5648 68.0155 24.5894 67.9771 24.6018C67.862 24.6388 67.6892 24.6578 67.4587 24.6587C67.2282 24.6596 67.0038 24.5932 66.7856 24.4598C66.7085 24.399 66.6377 24.3077 66.5732 24.1858C66.5087 24.0884 66.4505 23.9543 66.3986 23.7836C66.3594 23.6006 66.3264 23.3687 66.2997 23.088C66.1219 23.4549 65.9182 23.7487 65.6886 23.9694C65.4718 24.1778 65.2547 24.3312 65.0375 24.4297C64.7947 24.5649 64.5453 24.6452 64.2893 24.6706C63.9693 24.6963 63.6617 24.6486 63.3667 24.5276C63.0844 24.3943 62.8403 24.1999 62.6343 23.9443C62.4411 23.6764 62.2925 23.3534 62.1885 22.9753C62.0845 22.5971 62.0507 22.1699 62.0871 21.6936C62.1235 21.1929 62.2241 20.7468 62.3889 20.3555C62.5538 19.9641 62.7508 19.6154 62.9801 19.3093C63.2093 19.0032 63.4516 18.7459 63.7068 18.5373C63.962 18.3166 64.2046 18.1386 64.4345 18.0034C64.6772 17.856 64.8817 17.7515 65.0479 17.6898C65.2269 17.6158 65.342 17.5727 65.3931 17.5603C65.5339 17.5231 65.6555 17.5104 65.758 17.5223C65.8605 17.5341 65.9503 17.5887 66.0276 17.6861C66.0533 17.7226 66.0855 17.7652 66.1241 17.8139C66.1499 17.8627 66.1822 17.9297 66.221 18.015C66.2597 18.0881 66.2921 18.1735 66.3181 18.2711C66.0113 18.4065 65.7238 18.5602 65.4556 18.7322C65.1874 18.8919 64.9385 19.0882 64.7089 19.3211C64.4922 19.5539 64.3013 19.8354 64.1362 20.1657C63.9711 20.496 63.8447 20.8994 63.757 21.3759C63.6314 21.9747 63.6654 22.4569 63.859 22.8224C64.0655 23.188 64.3414 23.3395 64.6869 23.2772C64.8915 23.2154 65.0896 23.0986 65.2809 22.927C65.4468 22.7798 65.6188 22.5594 65.7968 22.2657C65.9877 21.9719 66.1653 21.5683 66.3297 21.0549C66.3906 20.3221 66.4395 19.748 66.4762 19.3327C66.5256 18.9052 66.5691 18.5815 66.6066 18.3616C66.6568 18.105 66.6945 17.9339 66.7197 17.8483C66.7579 17.7871 66.8345 17.7319 66.9496 17.6826C67.0646 17.6211 67.1924 17.5718 67.3331 17.5346C67.4738 17.4975 67.6018 17.4787 67.7171 17.4783C67.8323 17.4656 67.9091 17.4653 67.9476 17.4774C67.9732 17.4895 67.9867 17.6421 67.9879 17.9351C67.9891 18.2159 67.9778 18.5762 67.954 19.0158C67.9429 19.4432 67.9257 19.9134 67.9022 20.4263C67.8786 20.927 67.855 21.4032 67.8313 21.8551C67.8203 22.3069 67.8092 22.7038 67.7978 23.0457C67.7992 23.3754 67.8128 23.5829 67.8388 23.6682Z" fill="black"/>
<path d="M64.4687 67.9429C64.4562 68.0162 64.3861 68.0958 64.2584 68.1818C64.1435 68.2555 64.0029 68.3232 63.8367 68.3848C63.6833 68.4465 63.5361 68.4837 63.3953 68.4964C63.2546 68.5214 63.1585 68.5095 63.107 68.4609C63.0556 68.4122 62.972 68.321 62.8562 68.1871C62.7404 68.0532 62.669 67.8337 62.6422 67.5286C62.6152 67.2112 62.6008 66.8144 62.5988 66.3382C62.5968 65.8499 62.5882 65.3127 62.5729 64.7266L62.5699 63.994C62.569 63.7743 62.5615 63.5179 62.5475 63.2249C62.5463 62.9319 62.5386 62.6266 62.5245 62.3092C62.6395 62.2478 62.7545 62.1924 62.8696 62.1431C62.9974 62.0816 63.1124 62.0323 63.2147 61.9953C63.3297 61.946 63.4384 61.909 63.5408 61.8842C63.8094 61.8099 64.0141 61.7664 64.1549 61.7536C64.2957 61.7409 64.3792 61.7833 64.4052 61.8809C64.4183 61.9541 64.4126 62.1312 64.3882 62.4121C64.3636 62.6564 64.3331 63.0289 64.2968 63.5297C64.2604 64.0182 64.1992 64.7022 64.1132 65.5816C64.278 65.1903 64.4111 64.854 64.5124 64.5728C64.6265 64.2915 64.7216 64.0653 64.7977 63.8941C64.8737 63.6862 64.9434 63.5211 65.0069 63.3988C65.0703 63.2398 65.1528 63.0625 65.2544 62.8667C65.3561 62.671 65.4578 62.4874 65.5595 62.3161C65.6741 62.1447 65.7759 61.9917 65.865 61.8571C65.9668 61.7224 66.0433 61.6427 66.0945 61.6181C66.1328 61.5936 66.248 61.5931 66.4402 61.6168C66.6324 61.6405 66.8376 61.7008 67.0557 61.7977C67.2737 61.8823 67.4855 62.0097 67.6911 62.1799C67.8967 62.3378 68.032 62.5327 68.0969 62.7644C68.1749 63.0327 68.202 63.3867 68.1782 63.8264C68.1672 64.266 68.1371 64.7179 68.0878 65.182C68.0513 65.6461 68.0211 66.0858 67.9972 66.501C67.9733 66.9163 68.0002 67.2336 68.078 67.4531C68.1041 67.5751 68.143 67.6849 68.1946 67.7823C68.2206 67.8799 68.253 67.9714 68.2918 68.0567C68.3433 68.1298 68.3947 68.1845 68.4461 68.221C68.1393 68.3564 67.89 68.455 67.6982 68.5168C67.5064 68.5786 67.3593 68.6219 67.2569 68.6467C67.129 68.6838 67.0394 68.6963 66.9882 68.6843C66.8728 68.6481 66.7699 68.5569 66.6797 68.4108C66.6022 68.2645 66.5309 68.0328 66.4655 67.7156C66.4395 67.618 66.426 67.4594 66.4251 67.2396C66.437 67.0075 66.4551 66.7511 66.4796 66.4701C66.5039 66.177 66.5283 65.8778 66.5527 65.5724C66.5898 65.2548 66.6142 64.9617 66.6259 64.693C66.6503 64.4121 66.6685 64.174 66.6805 63.9785C66.6925 63.7709 66.6919 63.6305 66.6788 63.5573C66.6138 63.3378 66.5236 63.1855 66.408 63.1005C66.2923 63.0032 66.2026 62.9913 66.1389 63.0648C65.9732 63.2486 65.7951 63.5484 65.6048 63.9643C65.4272 64.3679 65.2561 64.8142 65.0917 65.3032C64.9272 65.78 64.7883 66.2567 64.675 66.7333C64.5617 67.21 64.493 67.6132 64.4687 67.9429Z" fill="black"/>
<path d="M67.9805 57.8343C68.0064 57.9197 68.0452 57.9989 68.0967 58.072C68.1354 58.1329 68.1868 58.1937 68.2511 58.2546C68.3282 58.3031 68.4179 58.3333 68.5204 58.3451C68.4315 58.5164 68.3423 58.6327 68.2529 58.6941C68.2019 58.7309 68.1572 58.7555 68.1188 58.7679C68.0037 58.8049 67.8309 58.8239 67.6004 58.8248C67.3699 58.8256 67.1455 58.7593 66.9273 58.6258C66.8502 58.5651 66.7794 58.4738 66.7148 58.3519C66.6504 58.2545 66.5922 58.1204 66.5403 57.9496C66.5011 57.7666 66.4681 57.5348 66.4413 57.2541C66.2636 57.621 66.0599 57.9148 65.8303 58.1355C65.6135 58.3439 65.3964 58.4973 65.1791 58.5958C64.9364 58.731 64.687 58.8113 64.431 58.8367C64.1109 58.8623 63.8034 58.8147 63.5084 58.6937C63.2261 58.5604 62.9819 58.366 62.776 58.1104C62.5828 57.8425 62.4342 57.5195 62.3302 57.1413C62.2262 56.7632 62.1924 56.336 62.2288 55.8597C62.2652 55.3589 62.3658 54.9129 62.5306 54.5216C62.6955 54.1302 62.8925 53.7815 63.1217 53.4754C63.351 53.1693 63.5932 52.9119 63.8485 52.7034C64.1037 52.4827 64.3463 52.3047 64.5762 52.1695C64.8189 52.0221 65.0234 51.9175 65.1896 51.8559C65.3686 51.7819 65.4836 51.7388 65.5348 51.7264C65.6755 51.6892 65.7971 51.6765 65.8996 51.6884C66.0021 51.7002 66.092 51.7548 66.1692 51.8522C66.195 51.8887 66.2272 51.9313 66.2658 51.98C66.2916 52.0288 66.3239 52.0958 66.3627 52.1811C66.4014 52.2542 66.4338 52.3396 66.4598 52.4372C66.153 52.5726 65.8655 52.7263 65.5973 52.8983C65.329 53.058 65.0801 53.2543 64.8506 53.4872C64.6339 53.72 64.4429 54.0015 64.2778 54.3318C64.1127 54.6621 63.9863 55.0655 63.8987 55.542C63.7731 56.1408 63.8071 56.623 64.0007 56.9885C64.2071 57.354 64.4831 57.5056 64.8286 57.4433C65.0332 57.3815 65.2312 57.2647 65.4226 57.0931C65.5885 56.9459 65.7604 56.7255 65.9385 56.4318C66.1294 56.138 66.307 55.7344 66.4713 55.221C66.5323 54.4882 66.5812 53.9141 66.6179 53.4988C66.6673 53.0713 66.7108 52.7476 66.7483 52.5276C66.7985 52.271 66.8362 52.1 66.8614 52.0144C66.8996 51.9532 66.9762 51.898 67.0912 51.8487C67.2062 51.7872 67.3341 51.7379 67.4748 51.7007C67.6155 51.6636 67.7435 51.6448 67.8587 51.6443C67.9739 51.6317 68.0508 51.6314 68.0892 51.6435C68.1149 51.6556 68.1283 51.8082 68.1296 52.1012C68.1307 52.382 68.1194 52.7422 68.0956 53.1819C68.0846 53.6093 68.0673 54.0794 68.0438 54.5923C68.0203 55.093 67.9967 55.5693 67.9729 56.0212C67.962 56.473 67.9508 56.8699 67.9395 57.2118C67.9408 57.5414 67.9545 57.749 67.9805 57.8343Z" fill="black"/>
<path d="M64.5488 87.2542C64.5363 87.3275 64.4662 87.4071 64.3385 87.4931C64.2235 87.5668 64.083 87.6344 63.9167 87.6961C63.7633 87.7578 63.6162 87.7949 63.4754 87.8077C63.3346 87.8326 63.2385 87.8208 63.1871 87.7721C63.1357 87.7235 63.0521 87.6322 62.9363 87.4984C62.8205 87.3645 62.7491 87.145 62.7222 86.8398C62.6953 86.5225 62.6809 86.1257 62.6789 85.6495C62.6769 85.1611 62.6682 84.6239 62.653 84.0379L62.65 83.3053C62.649 83.0855 62.6416 82.8291 62.6276 82.5362C62.6263 82.2431 62.6187 81.9379 62.6046 81.6205C62.7196 81.559 62.8346 81.5036 62.9496 81.4544C63.0774 81.3928 63.1925 81.3436 63.2948 81.3065C63.4098 81.2573 63.5185 81.2202 63.6209 81.1954C63.8895 81.1212 64.0942 81.0777 64.235 81.0649C64.3758 81.0522 64.4592 81.0946 64.4852 81.1922C64.4984 81.2654 64.4927 81.4424 64.4682 81.7234C64.4436 81.9677 64.4132 82.3402 64.3768 82.8409C64.3404 83.3295 64.2792 84.0134 64.1932 84.8929C64.3581 84.5015 64.4912 84.1653 64.5925 83.8841C64.7065 83.6028 64.8017 83.3766 64.8778 83.2053C64.9538 82.9975 65.0235 82.8324 65.087 82.71C65.1504 82.5511 65.2329 82.3737 65.3345 82.178C65.4362 81.9822 65.5378 81.7987 65.6396 81.6274C65.7541 81.456 65.8559 81.303 65.945 81.1684C66.0469 81.0337 66.1234 80.954 66.1745 80.9294C66.2129 80.9048 66.3281 80.9044 66.5203 80.9281C66.7125 80.9518 66.9176 81.0121 67.1357 81.1089C67.3538 81.1936 67.5656 81.321 67.7712 81.4911C67.9768 81.6491 68.112 81.8439 68.177 82.0757C68.255 82.344 68.282 82.698 68.2583 83.1376C68.2473 83.5773 68.2171 84.0291 68.1678 84.4933C68.1313 84.9574 68.1012 85.3971 68.0773 85.8123C68.0534 86.2275 68.0803 86.5449 68.158 86.7644C68.1842 86.8864 68.223 86.9961 68.2747 87.0936C68.3007 87.1912 68.3331 87.2826 68.3718 87.368C68.4234 87.441 68.4748 87.4958 68.5262 87.5322C68.2194 87.6677 67.9701 87.7663 67.7783 87.8281C67.5864 87.8899 67.4394 87.9331 67.337 87.9579C67.2091 87.9951 67.1195 88.0076 67.0682 87.9956C66.9528 87.9594 66.85 87.8682 66.7598 87.722C66.6823 87.5758 66.6109 87.3441 66.5456 87.0269C66.5196 86.9293 66.5061 86.7706 66.5052 86.5508C66.517 86.3188 66.5352 86.0623 66.5596 85.7814C66.584 85.4883 66.6084 85.189 66.6327 84.8837C66.6698 84.5661 66.6942 84.273 66.7059 84.0043C66.7304 83.7234 66.7486 83.4852 66.7606 83.2898C66.7725 83.0822 66.7719 82.9418 66.7588 82.8686C66.6939 82.649 66.6036 82.4967 66.488 82.4117C66.3724 82.3145 66.2827 82.3026 66.219 82.3761C66.0532 82.5599 65.8752 82.8597 65.6848 83.2756C65.5072 83.6792 65.3362 84.1255 65.1717 84.6145C65.0072 85.0913 64.8684 85.568 64.7551 86.0446C64.6418 86.5212 64.573 86.9244 64.5488 87.2542Z" fill="black"/>
<path d="M65.0879 78.2923C64.1915 78.2957 63.4988 78.0114 63.0098 77.4394C62.5208 76.8673 62.2744 76.1174 62.2705 75.1894C62.2679 74.5423 62.3614 73.9376 62.5512 73.3752C62.7537 72.8006 63.0205 72.305 63.3518 71.8887C63.683 71.4723 64.0658 71.1473 64.5003 70.9136C64.9474 70.6677 65.4143 70.5439 65.901 70.5421C66.3748 70.5403 66.7788 70.7036 67.1132 71.032C67.4474 71.3482 67.6158 71.8054 67.6183 72.4037C67.6199 72.7944 67.5319 73.1855 67.3542 73.5769C67.1765 73.956 66.941 74.2988 66.6478 74.6052C66.3672 74.8993 66.0545 75.1385 65.7095 75.323C65.3645 75.5074 65.0319 75.6003 64.7118 75.6015C64.5069 75.6022 64.3339 75.5785 64.1928 75.5302C64.0518 75.4819 63.9234 75.4091 63.8078 75.3118C63.8491 76.0076 64.0112 76.4954 64.2941 76.7752C64.5769 77.0427 64.9424 77.1757 65.3906 77.174C65.698 77.1728 65.9666 77.1108 66.1966 76.9878C66.4394 76.8648 66.6437 76.7236 66.8095 76.5642C66.9754 76.4049 67.1092 76.2457 67.2109 76.0865C67.3127 75.9152 67.3826 75.7868 67.4206 75.7011C67.4588 75.6277 67.5226 75.5909 67.6123 75.5905C67.7147 75.5901 67.7663 75.6632 67.7669 75.8097C67.7674 75.944 67.717 76.1518 67.6158 76.433C67.5272 76.702 67.3747 76.9773 67.1582 77.2589C66.9416 77.5283 66.6609 77.7675 66.316 77.9764C65.9839 78.1852 65.5745 78.2905 65.0879 78.2923ZM65.9426 71.3294C65.8658 71.3297 65.7189 71.4097 65.5018 71.5692C65.2975 71.7165 65.0744 71.9371 64.8323 72.2311C64.603 72.525 64.3867 72.8799 64.1836 73.2958C63.9932 73.6994 63.8734 74.1577 63.8243 74.6707C64.5919 74.4969 65.1991 74.226 65.6458 73.858C66.0925 73.49 66.3143 72.952 66.3114 72.2438C66.3099 71.8897 66.2641 71.6518 66.174 71.53C66.0838 71.3961 66.0067 71.3292 65.9426 71.3294Z" fill="black"/>
<path d="M64.3271 33.7768C64.3146 33.8501 64.2445 33.9298 64.1168 34.0157C64.0018 34.0894 63.8612 34.1571 63.695 34.2188C63.5416 34.2804 63.3945 34.3176 63.2537 34.3303C63.1129 34.3553 63.0168 34.3434 62.9654 34.2948C62.914 34.2461 62.8303 34.1549 62.7145 34.021C62.5987 33.8871 62.5274 33.6676 62.5005 33.3625C62.4736 33.0451 62.4591 32.6483 62.4571 32.1722C62.4551 31.6838 62.4465 31.1466 62.4313 30.5605L62.4282 29.828C62.4273 29.6082 62.4198 29.3518 62.4058 29.0588C62.4046 28.7658 62.3969 28.4606 62.3828 28.1432C62.4978 28.0817 62.6128 28.0263 62.7279 27.977C62.8557 27.9155 62.9707 27.8662 63.073 27.8292C63.1881 27.7799 63.2968 27.7429 63.3991 27.7181C63.6677 27.6438 63.8725 27.6003 64.0133 27.5876C64.1541 27.5748 64.2375 27.6172 64.2635 27.7148C64.2766 27.788 64.271 27.9651 64.2465 28.246C64.2219 28.4903 64.1914 28.8628 64.1551 29.3636C64.1187 29.8521 64.0575 30.5361 63.9715 31.4155C64.1364 31.0242 64.2694 30.6879 64.3707 30.4067C64.4848 30.1255 64.5799 29.8992 64.656 29.728C64.732 29.5201 64.8018 29.355 64.8653 29.2327C64.9286 29.0737 65.0112 28.8964 65.1128 28.7006C65.2144 28.5049 65.3161 28.3214 65.4178 28.15C65.5324 27.9787 65.6342 27.8257 65.7233 27.691C65.8252 27.5563 65.9017 27.4767 65.9528 27.452C65.9911 27.4275 66.1064 27.427 66.2986 27.4507C66.4907 27.4744 66.6959 27.5347 66.914 27.6316C67.132 27.7162 67.3439 27.8436 67.5495 28.0138C67.755 28.1717 67.8903 28.3666 67.9553 28.5983C68.0332 28.8667 68.0603 29.2207 68.0365 29.6603C68.0255 30.0999 67.9954 30.5518 67.9461 31.0159C67.9096 31.4801 67.8794 31.9197 67.8555 32.335C67.8316 32.7502 67.8586 33.0676 67.9363 33.287C67.9624 33.409 68.0013 33.5188 68.0529 33.6163C68.0789 33.7138 68.1113 33.8053 68.1501 33.8906C68.2016 33.9637 68.2531 34.0184 68.3045 34.0549C67.9977 34.1903 67.7484 34.289 67.5565 34.3507C67.3647 34.4125 67.2176 34.4558 67.1153 34.4806C66.9874 34.5177 66.8978 34.5303 66.8465 34.5182C66.7311 34.4821 66.6283 34.3909 66.538 34.2447C66.4606 34.0985 66.3892 33.8667 66.3238 33.5495C66.2978 33.4519 66.2844 33.2933 66.2834 33.0735C66.2953 32.8415 66.3134 32.585 66.3379 32.3041C66.3623 32.0109 66.3867 31.7117 66.411 31.4063C66.4481 31.0887 66.4725 30.7956 66.4842 30.527C66.5086 30.246 66.5269 30.0079 66.5389 29.8125C66.5508 29.6049 66.5502 29.4644 66.5371 29.3912C66.4722 29.1717 66.3819 29.0194 66.2663 28.9344C66.1506 28.8371 66.0609 28.8253 65.9972 28.8988C65.8315 29.0825 65.6535 29.3823 65.4631 29.7982C65.2855 30.2018 65.1145 30.6481 64.95 31.1371C64.7855 31.6139 64.6466 32.0907 64.5333 32.5673C64.4201 33.0439 64.3513 33.4471 64.3271 33.7768Z" fill="black"/>
<path d="M57.6365 10.852C57.8798 10.8511 58.0786 10.9175 58.2328 11.0512C58.3998 11.1849 58.4838 11.3739 58.4848 11.6181C58.4855 11.7646 58.4541 11.9173 58.3907 12.0763C58.3401 12.2352 58.2447 12.3882 58.1045 12.5352C57.977 12.67 57.8045 12.7806 57.5872 12.8669C57.3827 12.9653 57.1332 13.0151 56.8387 13.0162C56.5826 13.0172 56.3838 12.9446 56.2423 12.7987C56.1136 12.6526 56.0489 12.4697 56.0479 12.2499C56.0464 11.8837 56.1987 11.5595 56.5049 11.2775C56.8111 10.9955 57.1883 10.8537 57.6365 10.852Z" fill="black"/>
<path d="M10.9496 65.5953C10.3969 65.7472 9.82041 65.7306 9.2202 65.5457C8.66594 65.3231 8.15733 64.9881 7.69437 64.5405C7.2314 64.093 6.86035 63.5702 6.5812 62.9722C6.34817 62.374 6.23025 61.7379 6.22746 61.064C6.82658 60.9868 7.47181 60.9095 8.16315 60.832C8.85434 60.7171 9.4995 60.6211 10.0986 60.5439C10.79 60.4664 11.4583 60.389 12.1035 60.3117C12.1406 58.14 12.1782 56.0805 12.2162 54.1334C12.3002 52.1487 12.3621 50.3887 12.4018 48.8535C12.4875 47.2806 12.5512 45.9699 12.593 44.9214C12.6807 43.8352 12.7469 43.1049 12.7914 42.7303C12.7906 42.5431 12.9051 42.3554 13.1349 42.1674C13.5029 41.9413 14.0318 41.6211 14.7218 41.2066C15.4578 40.792 16.2862 40.4145 17.2071 40.074C17.9898 39.809 18.4974 39.9007 18.7299 40.3491C19.0082 40.7599 19.1499 41.5643 19.1549 42.7625C19.0696 44.4477 18.9868 46.7132 18.9064 49.559C18.826 52.4049 18.7476 55.7562 18.6714 59.613C19.4088 59.5353 20.1233 59.4765 20.8148 59.4364C21.5063 59.3964 22.2439 59.3562 23.0276 59.3158C25.1484 59.2329 27.1999 59.1316 29.1822 59.0118C31.2106 58.8918 32.9858 58.8851 34.5079 58.9917C34.7163 53.6368 34.7688 49.6303 34.6656 46.9723C34.5622 44.2769 34.5095 42.6859 34.5075 42.1991C34.5065 41.9745 34.8052 41.7113 35.4034 41.4095C36.0015 41.1077 36.646 40.8432 37.3367 40.6159C38.0734 40.3511 38.7413 40.18 39.3404 40.1029C39.9394 39.9883 40.2622 40.0058 40.309 40.1554C40.3562 40.4173 40.3589 41.0725 40.3171 42.1211C40.3215 43.1694 40.3045 44.6484 40.2663 46.5581C40.2741 48.4301 40.2838 50.7702 40.2955 53.5783C40.3532 56.3862 40.459 59.6619 40.6129 63.4055C40.5278 65.1281 40.4891 66.9255 40.4969 68.7975C40.5036 70.4075 40.5571 72.2045 40.6576 74.1885C40.758 76.1725 40.9738 78.1749 41.305 80.1955C40.7073 80.6096 40.063 80.9302 39.3723 81.1575C38.6816 81.3848 38.0138 81.5745 37.3688 81.7267C36.6317 81.8792 35.8944 81.9943 35.157 82.072C34.7421 82.111 34.396 82.0374 34.1185 81.8513C33.8874 81.7024 33.7251 81.497 33.6318 81.2353C33.5387 81.011 33.4685 80.7679 33.4213 80.506C33.4202 80.2439 33.4192 80.0005 33.4183 79.7759C33.4163 79.2892 33.4143 78.8211 33.4125 78.3718C33.4569 77.9598 33.5016 77.6227 33.5466 77.3604C33.6321 75.7501 33.7393 73.8027 33.8682 71.5183C33.9971 69.2339 34.1248 66.6874 34.2515 63.8788C33.9286 63.8426 33.6288 63.825 33.3521 63.826C33.0753 63.7896 32.7524 63.7534 32.3834 63.7173C30.3079 63.6128 28.0485 63.6214 25.6052 63.7429C23.2079 63.8643 20.857 64.0603 18.5526 64.3311C18.5141 66.1659 18.5213 67.9069 18.5743 69.5541C18.6271 71.1639 18.6793 72.6427 18.731 73.9904C18.8287 75.3004 18.9256 76.442 19.0219 77.4152C19.118 78.3508 19.2131 79.0432 19.3072 79.4921C19.3548 79.8663 19.2867 80.1287 19.1029 80.2791C18.9193 80.467 18.6436 80.7115 18.276 81.0124C17.9544 81.3131 17.5175 81.5956 16.9653 81.8597C16.4593 82.1612 15.8379 82.4069 15.1009 82.5969C14.364 82.8243 13.5115 82.9399 12.5432 82.9435C12.0821 82.9452 11.8508 82.7776 11.8494 82.4407C11.8474 81.9539 11.8442 81.1864 11.8399 80.138C11.8816 79.0895 11.8994 77.8164 11.8932 76.3188C11.9331 74.821 11.9492 73.1548 11.9416 71.3202C11.98 69.4479 12.0179 67.4634 12.0553 65.3665C11.8249 65.4048 11.6175 65.443 11.4333 65.4812C11.2951 65.5191 11.1338 65.5572 10.9496 65.5953Z" fill="black"/>
<path d="M31.6421 54.7113C29.2442 54.6829 26.9386 54.6729 24.7254 54.6812C22.4658 54.6523 20.529 54.6221 18.915 54.5908C17.2549 54.5596 15.5486 54.5286 13.7963 54.4978C11.9978 54.4671 10.3148 54.4734 8.74723 54.5168C7.13338 54.5229 5.70411 54.5657 4.45945 54.6453C3.21478 54.7249 2.3161 54.8406 1.7634 54.9924C1.11444 54.1711 0.673055 53.3678 0.439244 52.5824C0.299206 52.1711 0.205277 51.7596 0.157459 51.3479C0.109176 50.8239 0.153656 50.4306 0.2909 50.168C0.382034 49.9056 0.588753 49.7176 0.911059 49.604C1.23336 49.4905 1.62507 49.4329 2.08617 49.4311C2.50101 49.3921 2.98509 49.3716 3.53841 49.3695C4.09173 49.3674 5.0602 49.4012 6.44382 49.4709C7.82728 49.5031 9.48748 49.553 11.4244 49.6206C13.3614 49.6882 15.5057 49.7362 17.8575 49.7648C20.1632 49.7936 22.5149 49.8034 24.9126 49.7944C23.479 48.7889 22.0223 47.7834 20.5426 46.7781C19.0627 45.7353 17.6757 44.8419 16.3815 44.098C13.0072 42.1263 10.0499 40.621 7.50948 39.5823C4.92296 38.5436 3.12249 38.0262 2.10806 38.0301C1.59821 37.3955 1.20379 36.7979 0.924801 36.2373C0.645811 35.6768 0.436297 35.1908 0.296259 34.7795C0.109955 34.3309 0.0160269 33.9194 0.0144744 33.545C0.011059 32.7213 0.447243 32.2703 1.32303 32.1921C2.19866 32.0765 3.14423 32.1478 4.15974 32.4061C5.03692 32.6649 6.23788 33.1658 7.76262 33.9089C9.2411 34.6147 10.9046 35.4696 12.7532 36.4736C14.6018 37.4775 16.5431 38.5934 18.5771 39.8214C20.565 41.0494 22.5069 42.3151 24.4028 43.6184C25.9217 42.9388 27.7398 42.1456 29.8571 41.2391C31.9282 40.2952 33.9993 39.3514 36.0703 38.4075C38.0952 37.4264 39.9819 36.502 41.7305 35.6342C43.433 34.7666 44.6981 34.0505 45.5257 33.4857C46.6755 32.77 47.5723 32.1863 48.216 31.7346C48.8596 31.2828 49.3883 30.8877 49.8019 30.5492C50.2155 30.2106 50.56 29.8911 50.8354 29.5905C51.1107 29.2525 51.4318 28.8582 51.7988 28.4075C52.1703 29.0426 52.4496 29.678 52.6367 30.3138C52.8236 30.9122 52.9642 31.4546 53.0585 31.941C53.1532 32.5397 53.2015 33.0824 53.2035 33.5691C53.1616 34.5802 52.5892 35.5371 51.4863 36.4399C50.4293 37.305 49.1645 38.0773 47.6917 38.7568C47.1856 39.0208 46.1961 39.4739 44.7232 40.1159C43.2502 40.7205 41.5931 41.4195 39.7519 42.2127C37.8645 42.9686 35.9542 43.7621 34.021 44.5931C32.0417 45.4243 30.3155 46.1422 28.8424 46.7468C29.4902 47.2685 30.1147 47.7716 30.7162 48.2561C31.3175 48.7032 31.8728 49.1878 32.3822 49.7101C34.4109 49.665 36.3244 49.639 38.1227 49.6323C39.8747 49.5882 41.4885 49.5634 42.964 49.5578C44.3935 49.5525 45.6155 49.5666 46.63 49.6002C47.5984 49.5965 48.29 49.5939 48.705 49.5924C49.2583 49.5903 49.766 49.7007 50.228 49.9236C50.7362 50.1463 51.1757 50.5004 51.5466 50.9857C51.9174 51.4336 52.1966 52.0691 52.3845 52.8921C52.5722 53.6776 52.6454 54.6509 52.6041 55.8117C51.9583 55.7393 51.1509 55.6487 50.1822 55.54C49.2134 55.4313 48.2677 55.3413 47.3452 55.2699C46.2842 55.1616 45.2233 55.072 44.1624 55.0011C43.1016 54.9302 41.8564 54.8787 40.4268 54.8467C38.9972 54.8146 37.4524 54.783 35.7923 54.7518C35.5165 54.9775 35.1948 55.2221 34.827 55.4856C34.459 55.7116 34.0218 55.9192 33.5154 56.1083C33.3303 55.9592 33.1222 55.8102 32.8911 55.6614C32.6599 55.5125 32.4518 55.3635 32.2667 55.2144L31.6421 54.7113Z" fill="black"/>
</g>
</svg>
