<svg width="28" height="28" viewBox="0 0 28 28" fill="none" xmlns="http://www.w3.org/2000/svg">
<path d="M7.8125 11C7.125 11 6.8125 11.8125 7.25 12.3125L13.4375 18.4375C13.75 18.75 14.1875 18.75 14.5 18.4375L20.6875 12.3125C21.1875 11.8125 20.8125 11 20.125 11H7.8125ZM28 3C28 1.375 26.625 0 25 0H3C1.3125 0 0 1.375 0 3V25C0 26.6875 1.3125 28 3 28H25C26.625 28 28 26.6875 28 25V3ZM25 24.625C25 24.875 24.8125 25 24.625 25H3.375C3.125 25 3 24.875 3 24.625V3.375C3 3.1875 3.125 3 3.375 3H24.625C24.8125 3 25 3.1875 25 3.375V24.625Z" fill="black"/>
</svg>
