<svg width="35" height="23" viewBox="0 0 35 23" fill="none" xmlns="http://www.w3.org/2000/svg">
<path d="M17.2812 22.2188C17.1719 22.2188 17.0625 22.2188 16.9531 22.1641L15.9141 21.5078C15.75 21.4531 15.8047 21.3984 15.8594 21.3984C16.0781 21.3438 16.1328 21.2891 16.3516 21.1797H16.4062L17.2266 21.6719C17.2266 21.6719 17.2812 21.6719 17.3359 21.6719L20.5078 19.8125C20.5078 19.8125 20.5078 19.8125 20.5078 19.7578V16.0938C20.5078 16.0391 20.5078 16.0391 20.5078 16.0391L17.3359 14.1797C17.2812 14.1797 17.2812 14.1797 17.2266 14.1797L14.0547 16.0391L14 16.0938V19.7578L14.0547 19.8125L14.9297 20.3047C15.4219 20.5781 15.6953 20.3047 15.6953 20.0312V16.4219C15.6953 16.3672 15.75 16.3125 15.8047 16.3125H16.1875C16.2422 16.3125 16.2969 16.3672 16.2969 16.4219V20.0312C16.2969 20.6328 15.9141 21.0156 15.3125 21.0156C15.1484 21.0156 14.9844 21.0156 14.6016 20.7969L13.7812 20.3047C13.5625 20.1953 13.4531 19.9766 13.4531 19.7578V16.0938C13.4531 15.875 13.5625 15.6562 13.7812 15.5469L16.9531 13.6875C17.1172 13.5781 17.3906 13.5781 17.6094 13.6875L20.7812 15.5469C20.9453 15.6562 21.1094 15.875 21.1094 16.0938V19.7578C21.1094 19.9766 20.9453 20.1953 20.7812 20.3047L17.6094 22.1641C17.5 22.2188 17.3906 22.2188 17.2812 22.2188ZM19.8516 18.6641C19.8516 17.9531 19.3594 17.7891 18.375 17.625C17.3906 17.5156 17.3359 17.4609 17.3359 17.2422C17.3359 17.0234 17.3906 16.8047 18.1016 16.8047C18.7578 16.8047 19.0312 16.9141 19.0859 17.3516C19.1406 17.4062 19.1406 17.4062 19.1953 17.4062H19.6328C19.6328 17.4062 19.6328 17.4062 19.6875 17.4062V17.3516C19.6328 16.5859 19.1406 16.2031 18.1016 16.2031C17.2266 16.2031 16.6797 16.5859 16.6797 17.2422C16.6797 17.9531 17.2266 18.1172 18.1016 18.2266C19.1406 18.3359 19.1953 18.4453 19.1953 18.6641C19.1953 19.0469 18.9219 19.1562 18.2656 19.1562C17.3906 19.1562 17.2266 18.9375 17.1719 18.5547C17.1719 18.5 17.1172 18.4453 17.0625 18.4453H16.6797C16.625 18.4453 16.5703 18.5 16.5703 18.5547C16.5703 19.1016 16.8438 19.7031 18.2656 19.7031C19.25 19.7031 19.8516 19.3203 19.8516 18.6641ZM22.8047 15.9297C22.8047 16.2578 22.5312 16.5312 22.2031 16.5312C21.875 16.5312 21.6016 16.2578 21.6016 15.9297C21.6016 15.5469 21.875 15.2734 22.2031 15.2734C22.5312 15.2734 22.8047 15.5469 22.8047 15.9297ZM22.6953 15.9297C22.6953 15.6016 22.4766 15.3828 22.2031 15.3828C21.9297 15.3828 21.7109 15.6016 21.7109 15.9297C21.7109 16.2031 21.9297 16.4219 22.2031 16.4219C22.4766 16.4219 22.6953 16.2031 22.6953 15.9297ZM22.4766 16.2578H22.3125C22.3125 16.2031 22.3125 16.0391 22.3125 16.0391C22.2578 15.9844 22.2578 15.9844 22.2031 15.9844H22.0938V16.2578H21.9844V15.5469H22.2031C22.3125 15.5469 22.4219 15.5469 22.4219 15.7656C22.4219 15.875 22.3672 15.875 22.3125 15.9297C22.4219 15.9297 22.4219 15.9844 22.4219 16.0391C22.4219 16.0938 22.4219 16.2031 22.4766 16.2578ZM22.3125 15.7656C22.3125 15.6562 22.2578 15.6562 22.2031 15.6562H22.0938V15.875H22.2031C22.3125 15.875 22.3125 15.8203 22.3125 15.7656ZM7.49219 7.94531C7.49219 7.83594 7.38281 7.67188 7.27344 7.61719L3.9375 5.70312C3.88281 5.64844 3.82812 5.64844 3.71875 5.64844C3.66406 5.64844 3.60938 5.64844 3.5 5.70312L0.164062 7.61719C0.0546875 7.67188 0 7.83594 0 7.94531V13.1406C0 13.25 0 13.3047 0.0546875 13.3594C0.164062 13.3594 0.21875 13.3594 0.273438 13.3594L2.29688 12.2109C2.40625 12.1016 2.46094 11.9922 2.46094 11.8281V9.42188C2.46094 9.25781 2.57031 9.14844 2.67969 9.09375L3.5 8.60156C3.60938 8.54688 3.66406 8.54688 3.71875 8.54688C3.77344 8.54688 3.88281 8.54688 3.9375 8.60156L4.75781 9.09375C4.92188 9.14844 4.97656 9.25781 4.97656 9.42188V11.8281C4.97656 11.9922 5.03125 12.1016 5.19531 12.2109L7.16406 13.3594C7.21875 13.3594 7.32812 13.3594 7.38281 13.3594C7.4375 13.3047 7.49219 13.25 7.49219 13.1406V7.94531ZM25.8125 2.3125V11.9375C25.8125 12.1016 25.7578 12.2109 25.5938 12.3203L22.2578 14.2344C22.1484 14.2891 21.9844 14.2891 21.875 14.2344L18.4844 12.3203C18.375 12.2109 18.3203 12.1016 18.3203 11.9375V8.05469C18.3203 7.94531 18.375 7.78125 18.4844 7.72656L21.875 5.8125C21.9844 5.70312 22.1484 5.70312 22.2578 5.8125L23.0781 6.25C23.1875 6.30469 23.2969 6.25 23.2969 6.14062V1C23.2969 0.835938 23.4609 0.78125 23.625 0.835938L25.5938 1.92969C25.7578 2.03906 25.8125 2.14844 25.8125 2.3125ZM23.2969 9.36719C23.2969 9.3125 23.2969 9.25781 23.2422 9.25781L22.0938 8.60156C22.0938 8.60156 22.0391 8.60156 21.9844 8.60156L20.8359 9.25781C20.8359 9.25781 20.7812 9.3125 20.7812 9.36719V10.6797C20.7812 10.7344 20.8359 10.7344 20.8359 10.7891L21.9844 11.4453C22.0391 11.4453 22.0938 11.4453 22.0938 11.4453L23.2422 10.7891C23.2969 10.7344 23.2969 10.7344 23.2969 10.6797V9.36719ZM34.7812 9.3125C34.8906 9.25781 35 9.09375 35 8.98438V8C35 7.89062 34.8906 7.72656 34.7812 7.67188L31.4453 5.75781C31.3359 5.64844 31.1719 5.64844 31.0625 5.75781L27.6719 7.67188C27.5625 7.72656 27.5078 7.89062 27.5078 8V11.8828C27.5078 12.0469 27.5625 12.1562 27.6719 12.2656L31.0078 14.125C31.1172 14.2344 31.2812 14.2344 31.3906 14.125L33.4141 13.0312C33.5781 12.9219 33.5781 12.7578 33.4141 12.6484L30.0781 10.7344C29.9688 10.6797 29.9688 10.625 29.9688 10.5703V9.36719C29.9688 9.25781 29.9688 9.20312 30.0781 9.14844L31.1172 8.54688C31.1719 8.54688 31.2266 8.54688 31.2812 8.54688L32.375 9.14844C32.4297 9.20312 32.4844 9.25781 32.4844 9.36719V10.2969C32.4844 10.4609 32.6484 10.5703 32.7578 10.4609L34.7812 9.3125ZM30.5703 9.47656C30.5156 9.53125 30.5156 9.53125 30.5156 9.58594V10.2969C30.5156 10.3516 30.5156 10.3516 30.5703 10.3516L31.1719 10.7344C31.2266 10.7891 31.2266 10.7891 31.2812 10.7344L31.9375 10.3516C31.9375 10.3516 31.9375 10.3516 31.9375 10.2969V9.58594C31.9375 9.53125 31.9375 9.53125 31.9375 9.47656L31.2812 9.14844C31.2266 9.09375 31.2266 9.09375 31.1719 9.14844L30.5703 9.47656ZM16.625 11.8828V8.05469C16.625 7.89062 16.5703 7.72656 16.4062 7.67188L13.0703 5.75781C12.9609 5.70312 12.7969 5.70312 12.6875 5.75781L9.35156 7.67188C9.24219 7.72656 9.13281 7.89062 9.13281 8.05469V11.8828C9.13281 12.0469 9.24219 12.1562 9.35156 12.2109L12.6875 14.1797C12.8516 14.2344 12.9609 14.2344 13.125 14.1797L16.4609 12.2109C16.5156 12.1562 16.625 12.1016 16.625 11.9922C16.625 11.9375 16.625 11.9375 16.625 11.8828ZM12.5781 5.04688L12.5234 5.10156H12.5781V5.04688Z" fill="black"/>
</svg>
